<?xml version="1.0" encoding="utf-8" standalone="no"?>
<!DOCTYPE svg PUBLIC "-//W3C//DTD SVG 1.1//EN"
  "http://www.w3.org/Graphics/SVG/1.1/DTD/svg11.dtd">
<svg xmlns:xlink="http://www.w3.org/1999/xlink" width="720pt" height="720pt" viewBox="0 0 720 720" xmlns="http://www.w3.org/2000/svg" version="1.1">
 <metadata>
  <rdf:RDF xmlns:dc="http://purl.org/dc/elements/1.1/" xmlns:cc="http://creativecommons.org/ns#" xmlns:rdf="http://www.w3.org/1999/02/22-rdf-syntax-ns#">
   <cc:Work>
    <dc:type rdf:resource="http://purl.org/dc/dcmitype/StillImage"/>
    <dc:date>2025-04-27T23:53:41.870330</dc:date>
    <dc:format>image/svg+xml</dc:format>
    <dc:creator>
     <cc:Agent>
      <dc:title>Matplotlib v3.10.1, https://matplotlib.org/</dc:title>
     </cc:Agent>
    </dc:creator>
   </cc:Work>
  </rdf:RDF>
 </metadata>
 <defs>
  <style type="text/css">*{stroke-linejoin: round; stroke-linecap: butt}</style>
 </defs>
 <g id="figure_1">
  <g id="patch_1">
   <path d="M 0 720 
L 720 720 
L 720 0 
L 0 0 
z
" style="fill: #ffffff"/>
  </g>
  <g id="axes_1">
   <g id="patch_2">
    <path d="M 90 640.8 
L 648 640.8 
L 648 86.4 
L 90 86.4 
z
" style="fill: #ffffff"/>
   </g>
   <g id="matplotlib.axis_1">
    <g id="xtick_1">
     <g id="line2d_1">
      <path d="M 114.485729 640.8 
L 114.485729 86.4 
" clip-path="url(#pbfada79115)" style="fill: none; stroke: #000000; stroke-width: 0.25; stroke-linecap: round"/>
     </g>
     <g id="text_1">
      <!-- −15 -->
      <g style="fill: #262626" transform="translate(106.004479 654.957813) scale(0.1 -0.1)">
       <defs>
        <path id="ArialMT-2212" d="M 3381 1997 
L 356 1997 
L 356 2522 
L 3381 2522 
L 3381 1997 
z
" transform="scale(0.015625)"/>
        <path id="ArialMT-31" d="M 2384 0 
L 1822 0 
L 1822 3584 
Q 1619 3391 1289 3197 
Q 959 3003 697 2906 
L 697 3450 
Q 1169 3672 1522 3987 
Q 1875 4303 2022 4600 
L 2384 4600 
L 2384 0 
z
" transform="scale(0.015625)"/>
        <path id="ArialMT-35" d="M 266 1200 
L 856 1250 
Q 922 819 1161 601 
Q 1400 384 1738 384 
Q 2144 384 2425 690 
Q 2706 997 2706 1503 
Q 2706 1984 2436 2262 
Q 2166 2541 1728 2541 
Q 1456 2541 1237 2417 
Q 1019 2294 894 2097 
L 366 2166 
L 809 4519 
L 3088 4519 
L 3088 3981 
L 1259 3981 
L 1013 2750 
Q 1425 3038 1878 3038 
Q 2478 3038 2890 2622 
Q 3303 2206 3303 1553 
Q 3303 931 2941 478 
Q 2500 -78 1738 -78 
Q 1113 -78 717 272 
Q 322 622 266 1200 
z
" transform="scale(0.015625)"/>
       </defs>
       <use xlink:href="#ArialMT-2212"/>
       <use xlink:href="#ArialMT-31" transform="translate(58.398438 0)"/>
       <use xlink:href="#ArialMT-35" transform="translate(114.013672 0)"/>
      </g>
     </g>
    </g>
    <g id="xtick_2">
     <g id="line2d_2">
      <path d="M 199.323819 640.8 
L 199.323819 86.4 
" clip-path="url(#pbfada79115)" style="fill: none; stroke: #000000; stroke-width: 0.25; stroke-linecap: round"/>
     </g>
     <g id="text_2">
      <!-- −10 -->
      <g style="fill: #262626" transform="translate(190.842569 654.957813) scale(0.1 -0.1)">
       <defs>
        <path id="ArialMT-30" d="M 266 2259 
Q 266 3072 433 3567 
Q 600 4063 929 4331 
Q 1259 4600 1759 4600 
Q 2128 4600 2406 4451 
Q 2684 4303 2865 4023 
Q 3047 3744 3150 3342 
Q 3253 2941 3253 2259 
Q 3253 1453 3087 958 
Q 2922 463 2592 192 
Q 2263 -78 1759 -78 
Q 1097 -78 719 397 
Q 266 969 266 2259 
z
M 844 2259 
Q 844 1131 1108 757 
Q 1372 384 1759 384 
Q 2147 384 2411 759 
Q 2675 1134 2675 2259 
Q 2675 3391 2411 3762 
Q 2147 4134 1753 4134 
Q 1366 4134 1134 3806 
Q 844 3388 844 2259 
z
" transform="scale(0.015625)"/>
       </defs>
       <use xlink:href="#ArialMT-2212"/>
       <use xlink:href="#ArialMT-31" transform="translate(58.398438 0)"/>
       <use xlink:href="#ArialMT-30" transform="translate(114.013672 0)"/>
      </g>
     </g>
    </g>
    <g id="xtick_3">
     <g id="line2d_3">
      <path d="M 284.16191 640.8 
L 284.16191 86.4 
" clip-path="url(#pbfada79115)" style="fill: none; stroke: #000000; stroke-width: 0.25; stroke-linecap: round"/>
     </g>
     <g id="text_3">
      <!-- −5 -->
      <g style="fill: #262626" transform="translate(278.461128 654.957813) scale(0.1 -0.1)">
       <use xlink:href="#ArialMT-2212"/>
       <use xlink:href="#ArialMT-35" transform="translate(58.398438 0)"/>
      </g>
     </g>
    </g>
    <g id="xtick_4">
     <g id="line2d_4">
      <path d="M 369 640.8 
L 369 86.4 
" clip-path="url(#pbfada79115)" style="fill: none; stroke: #000000; stroke-width: 0.25; stroke-linecap: round"/>
     </g>
     <g id="text_4">
      <!-- 0 -->
      <g style="fill: #262626" transform="translate(366.219531 654.957813) scale(0.1 -0.1)">
       <use xlink:href="#ArialMT-30"/>
      </g>
     </g>
    </g>
    <g id="xtick_5">
     <g id="line2d_5">
      <path d="M 453.83809 640.8 
L 453.83809 86.4 
" clip-path="url(#pbfada79115)" style="fill: none; stroke: #000000; stroke-width: 0.25; stroke-linecap: round"/>
     </g>
     <g id="text_5">
      <!-- 5 -->
      <g style="fill: #262626" transform="translate(451.057622 654.957813) scale(0.1 -0.1)">
       <use xlink:href="#ArialMT-35"/>
      </g>
     </g>
    </g>
    <g id="xtick_6">
     <g id="line2d_6">
      <path d="M 538.676181 640.8 
L 538.676181 86.4 
" clip-path="url(#pbfada79115)" style="fill: none; stroke: #000000; stroke-width: 0.25; stroke-linecap: round"/>
     </g>
     <g id="text_6">
      <!-- 10 -->
      <g style="fill: #262626" transform="translate(533.115243 654.957813) scale(0.1 -0.1)">
       <use xlink:href="#ArialMT-31"/>
       <use xlink:href="#ArialMT-30" transform="translate(55.615234 0)"/>
      </g>
     </g>
    </g>
    <g id="xtick_7">
     <g id="line2d_7">
      <path d="M 623.514271 640.8 
L 623.514271 86.4 
" clip-path="url(#pbfada79115)" style="fill: none; stroke: #000000; stroke-width: 0.25; stroke-linecap: round"/>
     </g>
     <g id="text_7">
      <!-- 15 -->
      <g style="fill: #262626" transform="translate(617.953334 654.957813) scale(0.1 -0.1)">
       <use xlink:href="#ArialMT-31"/>
       <use xlink:href="#ArialMT-35" transform="translate(55.615234 0)"/>
      </g>
     </g>
    </g>
    <g id="text_8">
     <!-- PC1 -->
     <g style="fill: #262626" transform="translate(359.273438 668.103125) scale(0.1 -0.1)">
      <defs>
       <path id="ArialMT-50" d="M 494 0 
L 494 4581 
L 2222 4581 
Q 2678 4581 2919 4538 
Q 3256 4481 3484 4323 
Q 3713 4166 3852 3881 
Q 3991 3597 3991 3256 
Q 3991 2672 3619 2267 
Q 3247 1863 2275 1863 
L 1100 1863 
L 1100 0 
L 494 0 
z
M 1100 2403 
L 2284 2403 
Q 2872 2403 3119 2622 
Q 3366 2841 3366 3238 
Q 3366 3525 3220 3729 
Q 3075 3934 2838 4000 
Q 2684 4041 2272 4041 
L 1100 4041 
L 1100 2403 
z
" transform="scale(0.015625)"/>
       <path id="ArialMT-43" d="M 3763 1606 
L 4369 1453 
Q 4178 706 3683 314 
Q 3188 -78 2472 -78 
Q 1731 -78 1267 223 
Q 803 525 561 1097 
Q 319 1669 319 2325 
Q 319 3041 592 3573 
Q 866 4106 1370 4382 
Q 1875 4659 2481 4659 
Q 3169 4659 3637 4309 
Q 4106 3959 4291 3325 
L 3694 3184 
Q 3534 3684 3231 3912 
Q 2928 4141 2469 4141 
Q 1941 4141 1586 3887 
Q 1231 3634 1087 3207 
Q 944 2781 944 2328 
Q 944 1744 1114 1308 
Q 1284 872 1643 656 
Q 2003 441 2422 441 
Q 2931 441 3284 734 
Q 3638 1028 3763 1606 
z
" transform="scale(0.015625)"/>
      </defs>
      <use xlink:href="#ArialMT-50"/>
      <use xlink:href="#ArialMT-43" transform="translate(66.699219 0)"/>
      <use xlink:href="#ArialMT-31" transform="translate(138.916016 0)"/>
     </g>
    </g>
   </g>
   <g id="matplotlib.axis_2">
    <g id="ytick_1">
     <g id="line2d_8">
      <path d="M 90 588.756326 
L 648 588.756326 
" clip-path="url(#pbfada79115)" style="fill: none; stroke: #000000; stroke-width: 0.25; stroke-linecap: round"/>
     </g>
     <g id="text_9">
      <!-- −10 -->
      <g style="fill: #262626" transform="translate(66.0375 592.335233) scale(0.1 -0.1)">
       <use xlink:href="#ArialMT-2212"/>
       <use xlink:href="#ArialMT-31" transform="translate(58.398438 0)"/>
       <use xlink:href="#ArialMT-30" transform="translate(114.013672 0)"/>
      </g>
     </g>
    </g>
    <g id="ytick_2">
     <g id="line2d_9">
      <path d="M 90 476.178163 
L 648 476.178163 
" clip-path="url(#pbfada79115)" style="fill: none; stroke: #000000; stroke-width: 0.25; stroke-linecap: round"/>
     </g>
     <g id="text_10">
      <!-- −5 -->
      <g style="fill: #262626" transform="translate(71.598438 479.757069) scale(0.1 -0.1)">
       <use xlink:href="#ArialMT-2212"/>
       <use xlink:href="#ArialMT-35" transform="translate(58.398438 0)"/>
      </g>
     </g>
    </g>
    <g id="ytick_3">
     <g id="line2d_10">
      <path d="M 90 363.6 
L 648 363.6 
" clip-path="url(#pbfada79115)" style="fill: none; stroke: #000000; stroke-width: 0.25; stroke-linecap: round"/>
     </g>
     <g id="text_11">
      <!-- 0 -->
      <g style="fill: #262626" transform="translate(77.439063 367.178906) scale(0.1 -0.1)">
       <use xlink:href="#ArialMT-30"/>
      </g>
     </g>
    </g>
    <g id="ytick_4">
     <g id="line2d_11">
      <path d="M 90 251.021837 
L 648 251.021837 
" clip-path="url(#pbfada79115)" style="fill: none; stroke: #000000; stroke-width: 0.25; stroke-linecap: round"/>
     </g>
     <g id="text_12">
      <!-- 5 -->
      <g style="fill: #262626" transform="translate(77.439063 254.600743) scale(0.1 -0.1)">
       <use xlink:href="#ArialMT-35"/>
      </g>
     </g>
    </g>
    <g id="ytick_5">
     <g id="line2d_12">
      <path d="M 90 138.443674 
L 648 138.443674 
" clip-path="url(#pbfada79115)" style="fill: none; stroke: #000000; stroke-width: 0.25; stroke-linecap: round"/>
     </g>
     <g id="text_13">
      <!-- 10 -->
      <g style="fill: #262626" transform="translate(71.878125 142.02258) scale(0.1 -0.1)">
       <use xlink:href="#ArialMT-31"/>
       <use xlink:href="#ArialMT-30" transform="translate(55.615234 0)"/>
      </g>
     </g>
    </g>
    <g id="text_14">
     <!-- PC2 -->
     <g style="fill: #262626" transform="translate(60.05 373.326562) rotate(-90) scale(0.1 -0.1)">
      <defs>
       <path id="ArialMT-32" d="M 3222 541 
L 3222 0 
L 194 0 
Q 188 203 259 391 
Q 375 700 629 1000 
Q 884 1300 1366 1694 
Q 2113 2306 2375 2664 
Q 2638 3022 2638 3341 
Q 2638 3675 2398 3904 
Q 2159 4134 1775 4134 
Q 1369 4134 1125 3890 
Q 881 3647 878 3216 
L 300 3275 
Q 359 3922 746 4261 
Q 1134 4600 1788 4600 
Q 2447 4600 2831 4234 
Q 3216 3869 3216 3328 
Q 3216 3053 3103 2787 
Q 2991 2522 2730 2228 
Q 2469 1934 1863 1422 
Q 1356 997 1212 845 
Q 1069 694 975 541 
L 3222 541 
z
" transform="scale(0.015625)"/>
      </defs>
      <use xlink:href="#ArialMT-50"/>
      <use xlink:href="#ArialMT-43" transform="translate(66.699219 0)"/>
      <use xlink:href="#ArialMT-32" transform="translate(138.916016 0)"/>
     </g>
    </g>
   </g>
   <g id="PathCollection_1">
    <defs>
     <path id="C0_0_f972a3137c" d="M 0 3.535534 
C 0.937635 3.535534 1.836992 3.163008 2.5 2.5 
C 3.163008 1.836992 3.535534 0.937635 3.535534 -0 
C 3.535534 -0.937635 3.163008 -1.836992 2.5 -2.5 
C 1.836992 -3.163008 0.937635 -3.535534 0 -3.535534 
C -0.937635 -3.535534 -1.836992 -3.163008 -2.5 -2.5 
C -3.163008 -1.836992 -3.535534 -0.937635 -3.535534 0 
C -3.535534 0.937635 -3.163008 1.836992 -2.5 2.5 
C -1.836992 3.163008 -0.937635 3.535534 0 3.535534 
z
"/>
    </defs>
    <g clip-path="url(#pbfada79115)">
     <use xlink:href="#C0_0_f972a3137c" x="490.701352" y="391.786497" style="fill: #ff7f0e; stroke: #ffffff; stroke-width: 0.565685"/>
    </g>
    <g clip-path="url(#pbfada79115)">
     <use xlink:href="#C0_0_f972a3137c" x="247.298648" y="335.413503" style="fill: #1f77b4; stroke: #ffffff; stroke-width: 0.565685"/>
    </g>
    <g clip-path="url(#pbfada79115)">
     <use xlink:href="#C0_0_f972a3137c" x="513.652073" y="581.051759" style="fill: #ff7f0e; stroke: #ffffff; stroke-width: 0.565685"/>
    </g>
    <g clip-path="url(#pbfada79115)">
     <use xlink:href="#C0_0_f972a3137c" x="224.347927" y="146.148241" style="fill: #1f77b4; stroke: #ffffff; stroke-width: 0.565685"/>
    </g>
    <g clip-path="url(#pbfada79115)">
     <use xlink:href="#C0_0_f972a3137c" x="407.621169" y="429.137076" style="fill: #ff7f0e; stroke: #ffffff; stroke-width: 0.565685"/>
    </g>
    <g clip-path="url(#pbfada79115)">
     <use xlink:href="#C0_0_f972a3137c" x="330.378831" y="298.062924" style="fill: #1f77b4; stroke: #ffffff; stroke-width: 0.565685"/>
    </g>
    <g clip-path="url(#pbfada79115)">
     <use xlink:href="#C0_0_f972a3137c" x="386.402698" y="348.770334" style="fill: #ff7f0e; stroke: #ffffff; stroke-width: 0.565685"/>
    </g>
    <g clip-path="url(#pbfada79115)">
     <use xlink:href="#C0_0_f972a3137c" x="351.597302" y="378.429666" style="fill: #1f77b4; stroke: #ffffff; stroke-width: 0.565685"/>
    </g>
    <g clip-path="url(#pbfada79115)">
     <use xlink:href="#C0_0_f972a3137c" x="554.173334" y="347.168207" style="fill: #ff7f0e; stroke: #ffffff; stroke-width: 0.565685"/>
    </g>
    <g clip-path="url(#pbfada79115)">
     <use xlink:href="#C0_0_f972a3137c" x="183.826666" y="380.031793" style="fill: #1f77b4; stroke: #ffffff; stroke-width: 0.565685"/>
    </g>
    <g clip-path="url(#pbfada79115)">
     <use xlink:href="#C0_0_f972a3137c" x="467.987156" y="552.683345" style="fill: #ff7f0e; stroke: #ffffff; stroke-width: 0.565685"/>
    </g>
    <g clip-path="url(#pbfada79115)">
     <use xlink:href="#C0_0_f972a3137c" x="270.012844" y="174.516655" style="fill: #1f77b4; stroke: #ffffff; stroke-width: 0.565685"/>
    </g>
    <g clip-path="url(#pbfada79115)">
     <use xlink:href="#C0_0_f972a3137c" x="614.154744" y="308.311003" style="fill: #ff7f0e; stroke: #ffffff; stroke-width: 0.565685"/>
    </g>
    <g clip-path="url(#pbfada79115)">
     <use xlink:href="#C0_0_f972a3137c" x="123.845256" y="418.888997" style="fill: #1f77b4; stroke: #ffffff; stroke-width: 0.565685"/>
    </g>
    <g clip-path="url(#pbfada79115)">
     <use xlink:href="#C0_0_f972a3137c" x="499.256828" y="378.58222" style="fill: #ff7f0e; stroke: #ffffff; stroke-width: 0.565685"/>
    </g>
    <g clip-path="url(#pbfada79115)">
     <use xlink:href="#C0_0_f972a3137c" x="238.743172" y="348.61778" style="fill: #1f77b4; stroke: #ffffff; stroke-width: 0.565685"/>
    </g>
    <g clip-path="url(#pbfada79115)">
     <use xlink:href="#C0_0_f972a3137c" x="401.136572" y="409.828742" style="fill: #ff7f0e; stroke: #ffffff; stroke-width: 0.565685"/>
    </g>
    <g clip-path="url(#pbfada79115)">
     <use xlink:href="#C0_0_f972a3137c" x="336.863428" y="317.371258" style="fill: #1f77b4; stroke: #ffffff; stroke-width: 0.565685"/>
    </g>
    <g clip-path="url(#pbfada79115)">
     <use xlink:href="#C0_0_f972a3137c" x="346.320881" y="546.656732" style="fill: #ff7f0e; stroke: #ffffff; stroke-width: 0.565685"/>
    </g>
    <g clip-path="url(#pbfada79115)">
     <use xlink:href="#C0_0_f972a3137c" x="391.679119" y="180.543268" style="fill: #1f77b4; stroke: #ffffff; stroke-width: 0.565685"/>
    </g>
    <g clip-path="url(#pbfada79115)">
     <use xlink:href="#C0_0_f972a3137c" x="553.014698" y="338.03072" style="fill: #ff7f0e; stroke: #ffffff; stroke-width: 0.565685"/>
    </g>
    <g clip-path="url(#pbfada79115)">
     <use xlink:href="#C0_0_f972a3137c" x="184.985302" y="389.16928" style="fill: #1f77b4; stroke: #ffffff; stroke-width: 0.565685"/>
    </g>
    <g clip-path="url(#pbfada79115)">
     <use xlink:href="#C0_0_f972a3137c" x="566.155567" y="375.047244" style="fill: #ff7f0e; stroke: #ffffff; stroke-width: 0.565685"/>
    </g>
    <g clip-path="url(#pbfada79115)">
     <use xlink:href="#C0_0_f972a3137c" x="171.844433" y="352.152756" style="fill: #1f77b4; stroke: #ffffff; stroke-width: 0.565685"/>
    </g>
    <g clip-path="url(#pbfada79115)">
     <use xlink:href="#C0_0_f972a3137c" x="622.636364" y="331.257772" style="fill: #ff7f0e; stroke: #ffffff; stroke-width: 0.565685"/>
    </g>
    <g clip-path="url(#pbfada79115)">
     <use xlink:href="#C0_0_f972a3137c" x="115.363636" y="395.942228" style="fill: #1f77b4; stroke: #ffffff; stroke-width: 0.565685"/>
    </g>
    <g clip-path="url(#pbfada79115)">
     <use xlink:href="#C0_0_f972a3137c" x="381.186509" y="385.065377" style="fill: #ff7f0e; stroke: #ffffff; stroke-width: 0.565685"/>
    </g>
    <g clip-path="url(#pbfada79115)">
     <use xlink:href="#C0_0_f972a3137c" x="356.813491" y="342.134623" style="fill: #1f77b4; stroke: #ffffff; stroke-width: 0.565685"/>
    </g>
    <g clip-path="url(#pbfada79115)">
     <use xlink:href="#C0_0_f972a3137c" x="329.637511" y="409.220703" style="fill: #ff7f0e; stroke: #ffffff; stroke-width: 0.565685"/>
    </g>
    <g clip-path="url(#pbfada79115)">
     <use xlink:href="#C0_0_f972a3137c" x="408.362489" y="317.979297" style="fill: #1f77b4; stroke: #ffffff; stroke-width: 0.565685"/>
    </g>
    <g clip-path="url(#pbfada79115)">
     <use xlink:href="#C0_0_f972a3137c" x="518.085318" y="344.466925" style="fill: #ff7f0e; stroke: #ffffff; stroke-width: 0.565685"/>
    </g>
    <g clip-path="url(#pbfada79115)">
     <use xlink:href="#C0_0_f972a3137c" x="219.914682" y="382.733075" style="fill: #1f77b4; stroke: #ffffff; stroke-width: 0.565685"/>
    </g>
    <g clip-path="url(#pbfada79115)">
     <use xlink:href="#C0_0_f972a3137c" x="329.263654" y="418.034213" style="fill: #1f77b4; stroke: #ffffff; stroke-width: 0.565685"/>
    </g>
    <g clip-path="url(#pbfada79115)">
     <use xlink:href="#C0_0_f972a3137c" x="408.736346" y="309.165787" style="fill: #1f77b4; stroke: #ffffff; stroke-width: 0.565685"/>
    </g>
    <g clip-path="url(#pbfada79115)">
     <use xlink:href="#C0_0_f972a3137c" x="340.49139" y="338.809003" style="fill: #1f77b4; stroke: #ffffff; stroke-width: 0.565685"/>
    </g>
    <g clip-path="url(#pbfada79115)">
     <use xlink:href="#C0_0_f972a3137c" x="397.50861" y="388.390997" style="fill: #1f77b4; stroke: #ffffff; stroke-width: 0.565685"/>
    </g>
    <g clip-path="url(#pbfada79115)">
     <use xlink:href="#C0_0_f972a3137c" x="390.19572" y="336.642235" style="fill: #1f77b4; stroke: #ffffff; stroke-width: 0.565685"/>
    </g>
    <g clip-path="url(#pbfada79115)">
     <use xlink:href="#C0_0_f972a3137c" x="347.80428" y="390.557765" style="fill: #1f77b4; stroke: #ffffff; stroke-width: 0.565685"/>
    </g>
    <g clip-path="url(#pbfada79115)">
     <use xlink:href="#C0_0_f972a3137c" x="383.997333" y="388.881656" style="fill: #1f77b4; stroke: #ffffff; stroke-width: 0.565685"/>
    </g>
    <g clip-path="url(#pbfada79115)">
     <use xlink:href="#C0_0_f972a3137c" x="354.002667" y="338.318344" style="fill: #1f77b4; stroke: #ffffff; stroke-width: 0.565685"/>
    </g>
    <g clip-path="url(#pbfada79115)">
     <use xlink:href="#C0_0_f972a3137c" x="326.196984" y="615.6" style="fill: #1f77b4; stroke: #ffffff; stroke-width: 0.565685"/>
    </g>
    <g clip-path="url(#pbfada79115)">
     <use xlink:href="#C0_0_f972a3137c" x="411.803016" y="111.6" style="fill: #1f77b4; stroke: #ffffff; stroke-width: 0.565685"/>
    </g>
    <g clip-path="url(#pbfada79115)">
     <use xlink:href="#C0_0_f972a3137c" x="421.397547" y="326.914898" style="fill: #1f77b4; stroke: #ffffff; stroke-width: 0.565685"/>
    </g>
    <g clip-path="url(#pbfada79115)">
     <use xlink:href="#C0_0_f972a3137c" x="316.602453" y="400.285102" style="fill: #1f77b4; stroke: #ffffff; stroke-width: 0.565685"/>
    </g>
    <g clip-path="url(#pbfada79115)">
     <use xlink:href="#C0_0_f972a3137c" x="325.026213" y="572.09884" style="fill: #1f77b4; stroke: #ffffff; stroke-width: 0.565685"/>
    </g>
    <g clip-path="url(#pbfada79115)">
     <use xlink:href="#C0_0_f972a3137c" x="412.973787" y="155.10116" style="fill: #1f77b4; stroke: #ffffff; stroke-width: 0.565685"/>
    </g>
   </g>
   <g id="patch_3">
    <path d="M 269.96325 257.174465 
C 248.479168 275.437617 232.167488 301.852704 224.620668 330.602109 
C 217.073848 359.351514 218.908053 388.087976 229.71932 410.482622 
C 240.530587 432.877268 259.436225 447.101675 282.272485 450.023082 
C 305.108745 452.94449 330.011149 444.324377 351.495232 426.061225 
C 372.979314 407.798072 389.290994 381.382986 396.837814 352.633581 
C 404.384633 323.884175 402.550429 295.147714 391.739162 272.753068 
C 380.927895 250.358421 362.022257 236.134014 339.185997 233.212607 
C 316.349736 230.2912 291.447332 238.911312 269.96325 257.174465 
z
" clip-path="url(#pbfada79115)" style="fill: #1f77b4; opacity: 0.1; stroke: #1f77b4; stroke-width: 2; stroke-linejoin: miter"/>
   </g>
   <g id="patch_4">
    <path d="M 457.04269 338.555656 
C 432.981414 352.120995 412.137731 372.114224 399.10222 394.132067 
C 386.066709 416.149909 381.903661 438.394706 387.529941 455.967298 
C 393.15622 473.53989 408.112465 485.005554 429.104737 487.83911 
C 450.097008 490.672665 475.411381 484.642766 499.472657 471.077426 
C 523.533933 457.512087 544.377616 437.518858 557.413127 415.501015 
C 570.448638 393.483173 574.611685 371.238376 568.985406 353.665784 
C 563.359127 336.093192 548.402882 324.627528 527.41061 321.793973 
C 506.418338 318.960417 481.103966 324.990316 457.04269 338.555656 
z
" clip-path="url(#pbfada79115)" style="fill: #ff7f0e; opacity: 0.1; stroke: #ff7f0e; stroke-width: 2; stroke-linejoin: miter"/>
   </g>
   <g id="line2d_13"/>
   <g id="line2d_14"/>
   <g id="patch_5">
    <path d="M 90 640.8 
L 90 86.4 
" style="fill: none; stroke: #ffffff; stroke-width: 0.8; stroke-linejoin: miter; stroke-linecap: square"/>
   </g>
   <g id="patch_6">
    <path d="M 648 640.8 
L 648 86.4 
" style="fill: none; stroke: #ffffff; stroke-width: 0.8; stroke-linejoin: miter; stroke-linecap: square"/>
   </g>
   <g id="patch_7">
    <path d="M 90 640.8 
L 648 640.8 
" style="fill: none; stroke: #ffffff; stroke-width: 0.8; stroke-linejoin: miter; stroke-linecap: square"/>
   </g>
   <g id="patch_8">
    <path d="M 90 86.4 
L 648 86.4 
" style="fill: none; stroke: #ffffff; stroke-width: 0.8; stroke-linejoin: miter; stroke-linecap: square"/>
   </g>
   <g id="text_15">
    <!-- PCA of CD8 (Post Normalization) -->
    <g style="fill: #262626" transform="translate(280.639688 80.4) scale(0.12 -0.12)">
     <defs>
      <path id="ArialMT-41" d="M -9 0 
L 1750 4581 
L 2403 4581 
L 4278 0 
L 3588 0 
L 3053 1388 
L 1138 1388 
L 634 0 
L -9 0 
z
M 1313 1881 
L 2866 1881 
L 2388 3150 
Q 2169 3728 2063 4100 
Q 1975 3659 1816 3225 
L 1313 1881 
z
" transform="scale(0.015625)"/>
      <path id="ArialMT-20" transform="scale(0.015625)"/>
      <path id="ArialMT-6f" d="M 213 1659 
Q 213 2581 725 3025 
Q 1153 3394 1769 3394 
Q 2453 3394 2887 2945 
Q 3322 2497 3322 1706 
Q 3322 1066 3130 698 
Q 2938 331 2570 128 
Q 2203 -75 1769 -75 
Q 1072 -75 642 372 
Q 213 819 213 1659 
z
M 791 1659 
Q 791 1022 1069 705 
Q 1347 388 1769 388 
Q 2188 388 2466 706 
Q 2744 1025 2744 1678 
Q 2744 2294 2464 2611 
Q 2184 2928 1769 2928 
Q 1347 2928 1069 2612 
Q 791 2297 791 1659 
z
" transform="scale(0.015625)"/>
      <path id="ArialMT-66" d="M 556 0 
L 556 2881 
L 59 2881 
L 59 3319 
L 556 3319 
L 556 3672 
Q 556 4006 616 4169 
Q 697 4388 901 4523 
Q 1106 4659 1475 4659 
Q 1713 4659 2000 4603 
L 1916 4113 
Q 1741 4144 1584 4144 
Q 1328 4144 1222 4034 
Q 1116 3925 1116 3625 
L 1116 3319 
L 1763 3319 
L 1763 2881 
L 1116 2881 
L 1116 0 
L 556 0 
z
" transform="scale(0.015625)"/>
      <path id="ArialMT-44" d="M 494 0 
L 494 4581 
L 2072 4581 
Q 2606 4581 2888 4516 
Q 3281 4425 3559 4188 
Q 3922 3881 4101 3404 
Q 4281 2928 4281 2316 
Q 4281 1794 4159 1391 
Q 4038 988 3847 723 
Q 3656 459 3429 307 
Q 3203 156 2883 78 
Q 2563 0 2147 0 
L 494 0 
z
M 1100 541 
L 2078 541 
Q 2531 541 2789 625 
Q 3047 709 3200 863 
Q 3416 1078 3536 1442 
Q 3656 1806 3656 2325 
Q 3656 3044 3420 3430 
Q 3184 3816 2847 3947 
Q 2603 4041 2063 4041 
L 1100 4041 
L 1100 541 
z
" transform="scale(0.015625)"/>
      <path id="ArialMT-38" d="M 1131 2484 
Q 781 2613 612 2850 
Q 444 3088 444 3419 
Q 444 3919 803 4259 
Q 1163 4600 1759 4600 
Q 2359 4600 2725 4251 
Q 3091 3903 3091 3403 
Q 3091 3084 2923 2848 
Q 2756 2613 2416 2484 
Q 2838 2347 3058 2040 
Q 3278 1734 3278 1309 
Q 3278 722 2862 322 
Q 2447 -78 1769 -78 
Q 1091 -78 675 323 
Q 259 725 259 1325 
Q 259 1772 486 2073 
Q 713 2375 1131 2484 
z
M 1019 3438 
Q 1019 3113 1228 2906 
Q 1438 2700 1772 2700 
Q 2097 2700 2305 2904 
Q 2513 3109 2513 3406 
Q 2513 3716 2298 3927 
Q 2084 4138 1766 4138 
Q 1444 4138 1231 3931 
Q 1019 3725 1019 3438 
z
M 838 1322 
Q 838 1081 952 856 
Q 1066 631 1291 507 
Q 1516 384 1775 384 
Q 2178 384 2440 643 
Q 2703 903 2703 1303 
Q 2703 1709 2433 1975 
Q 2163 2241 1756 2241 
Q 1359 2241 1098 1978 
Q 838 1716 838 1322 
z
" transform="scale(0.015625)"/>
      <path id="ArialMT-28" d="M 1497 -1347 
Q 1031 -759 709 28 
Q 388 816 388 1659 
Q 388 2403 628 3084 
Q 909 3875 1497 4659 
L 1900 4659 
Q 1522 4009 1400 3731 
Q 1209 3300 1100 2831 
Q 966 2247 966 1656 
Q 966 153 1900 -1347 
L 1497 -1347 
z
" transform="scale(0.015625)"/>
      <path id="ArialMT-73" d="M 197 991 
L 753 1078 
Q 800 744 1014 566 
Q 1228 388 1613 388 
Q 2000 388 2187 545 
Q 2375 703 2375 916 
Q 2375 1106 2209 1216 
Q 2094 1291 1634 1406 
Q 1016 1563 777 1677 
Q 538 1791 414 1992 
Q 291 2194 291 2438 
Q 291 2659 392 2848 
Q 494 3038 669 3163 
Q 800 3259 1026 3326 
Q 1253 3394 1513 3394 
Q 1903 3394 2198 3281 
Q 2494 3169 2634 2976 
Q 2775 2784 2828 2463 
L 2278 2388 
Q 2241 2644 2061 2787 
Q 1881 2931 1553 2931 
Q 1166 2931 1000 2803 
Q 834 2675 834 2503 
Q 834 2394 903 2306 
Q 972 2216 1119 2156 
Q 1203 2125 1616 2013 
Q 2213 1853 2448 1751 
Q 2684 1650 2818 1456 
Q 2953 1263 2953 975 
Q 2953 694 2789 445 
Q 2625 197 2315 61 
Q 2006 -75 1616 -75 
Q 969 -75 630 194 
Q 291 463 197 991 
z
" transform="scale(0.015625)"/>
      <path id="ArialMT-74" d="M 1650 503 
L 1731 6 
Q 1494 -44 1306 -44 
Q 1000 -44 831 53 
Q 663 150 594 308 
Q 525 466 525 972 
L 525 2881 
L 113 2881 
L 113 3319 
L 525 3319 
L 525 4141 
L 1084 4478 
L 1084 3319 
L 1650 3319 
L 1650 2881 
L 1084 2881 
L 1084 941 
Q 1084 700 1114 631 
Q 1144 563 1211 522 
Q 1278 481 1403 481 
Q 1497 481 1650 503 
z
" transform="scale(0.015625)"/>
      <path id="ArialMT-4e" d="M 488 0 
L 488 4581 
L 1109 4581 
L 3516 984 
L 3516 4581 
L 4097 4581 
L 4097 0 
L 3475 0 
L 1069 3600 
L 1069 0 
L 488 0 
z
" transform="scale(0.015625)"/>
      <path id="ArialMT-72" d="M 416 0 
L 416 3319 
L 922 3319 
L 922 2816 
Q 1116 3169 1280 3281 
Q 1444 3394 1641 3394 
Q 1925 3394 2219 3213 
L 2025 2691 
Q 1819 2813 1613 2813 
Q 1428 2813 1281 2702 
Q 1134 2591 1072 2394 
Q 978 2094 978 1738 
L 978 0 
L 416 0 
z
" transform="scale(0.015625)"/>
      <path id="ArialMT-6d" d="M 422 0 
L 422 3319 
L 925 3319 
L 925 2853 
Q 1081 3097 1340 3245 
Q 1600 3394 1931 3394 
Q 2300 3394 2536 3241 
Q 2772 3088 2869 2813 
Q 3263 3394 3894 3394 
Q 4388 3394 4653 3120 
Q 4919 2847 4919 2278 
L 4919 0 
L 4359 0 
L 4359 2091 
Q 4359 2428 4304 2576 
Q 4250 2725 4106 2815 
Q 3963 2906 3769 2906 
Q 3419 2906 3187 2673 
Q 2956 2441 2956 1928 
L 2956 0 
L 2394 0 
L 2394 2156 
Q 2394 2531 2256 2718 
Q 2119 2906 1806 2906 
Q 1569 2906 1367 2781 
Q 1166 2656 1075 2415 
Q 984 2175 984 1722 
L 984 0 
L 422 0 
z
" transform="scale(0.015625)"/>
      <path id="ArialMT-61" d="M 2588 409 
Q 2275 144 1986 34 
Q 1697 -75 1366 -75 
Q 819 -75 525 192 
Q 231 459 231 875 
Q 231 1119 342 1320 
Q 453 1522 633 1644 
Q 813 1766 1038 1828 
Q 1203 1872 1538 1913 
Q 2219 1994 2541 2106 
Q 2544 2222 2544 2253 
Q 2544 2597 2384 2738 
Q 2169 2928 1744 2928 
Q 1347 2928 1158 2789 
Q 969 2650 878 2297 
L 328 2372 
Q 403 2725 575 2942 
Q 747 3159 1072 3276 
Q 1397 3394 1825 3394 
Q 2250 3394 2515 3294 
Q 2781 3194 2906 3042 
Q 3031 2891 3081 2659 
Q 3109 2516 3109 2141 
L 3109 1391 
Q 3109 606 3145 398 
Q 3181 191 3288 0 
L 2700 0 
Q 2613 175 2588 409 
z
M 2541 1666 
Q 2234 1541 1622 1453 
Q 1275 1403 1131 1340 
Q 988 1278 909 1158 
Q 831 1038 831 891 
Q 831 666 1001 516 
Q 1172 366 1500 366 
Q 1825 366 2078 508 
Q 2331 650 2450 897 
Q 2541 1088 2541 1459 
L 2541 1666 
z
" transform="scale(0.015625)"/>
      <path id="ArialMT-6c" d="M 409 0 
L 409 4581 
L 972 4581 
L 972 0 
L 409 0 
z
" transform="scale(0.015625)"/>
      <path id="ArialMT-69" d="M 425 3934 
L 425 4581 
L 988 4581 
L 988 3934 
L 425 3934 
z
M 425 0 
L 425 3319 
L 988 3319 
L 988 0 
L 425 0 
z
" transform="scale(0.015625)"/>
      <path id="ArialMT-7a" d="M 125 0 
L 125 456 
L 2238 2881 
Q 1878 2863 1603 2863 
L 250 2863 
L 250 3319 
L 2963 3319 
L 2963 2947 
L 1166 841 
L 819 456 
Q 1197 484 1528 484 
L 3063 484 
L 3063 0 
L 125 0 
z
" transform="scale(0.015625)"/>
      <path id="ArialMT-6e" d="M 422 0 
L 422 3319 
L 928 3319 
L 928 2847 
Q 1294 3394 1984 3394 
Q 2284 3394 2536 3286 
Q 2788 3178 2913 3003 
Q 3038 2828 3088 2588 
Q 3119 2431 3119 2041 
L 3119 0 
L 2556 0 
L 2556 2019 
Q 2556 2363 2490 2533 
Q 2425 2703 2258 2804 
Q 2091 2906 1866 2906 
Q 1506 2906 1245 2678 
Q 984 2450 984 1813 
L 984 0 
L 422 0 
z
" transform="scale(0.015625)"/>
      <path id="ArialMT-29" d="M 791 -1347 
L 388 -1347 
Q 1322 153 1322 1656 
Q 1322 2244 1188 2822 
Q 1081 3291 891 3722 
Q 769 4003 388 4659 
L 791 4659 
Q 1378 3875 1659 3084 
Q 1900 2403 1900 1659 
Q 1900 816 1576 28 
Q 1253 -759 791 -1347 
z
" transform="scale(0.015625)"/>
     </defs>
     <use xlink:href="#ArialMT-50"/>
     <use xlink:href="#ArialMT-43" transform="translate(66.699219 0)"/>
     <use xlink:href="#ArialMT-41" transform="translate(138.916016 0)"/>
     <use xlink:href="#ArialMT-20" transform="translate(200.115234 0)"/>
     <use xlink:href="#ArialMT-6f" transform="translate(227.898438 0)"/>
     <use xlink:href="#ArialMT-66" transform="translate(283.513672 0)"/>
     <use xlink:href="#ArialMT-20" transform="translate(311.296875 0)"/>
     <use xlink:href="#ArialMT-43" transform="translate(339.080078 0)"/>
     <use xlink:href="#ArialMT-44" transform="translate(411.296875 0)"/>
     <use xlink:href="#ArialMT-38" transform="translate(483.513672 0)"/>
     <use xlink:href="#ArialMT-20" transform="translate(539.128906 0)"/>
     <use xlink:href="#ArialMT-28" transform="translate(566.912109 0)"/>
     <use xlink:href="#ArialMT-50" transform="translate(600.212891 0)"/>
     <use xlink:href="#ArialMT-6f" transform="translate(666.912109 0)"/>
     <use xlink:href="#ArialMT-73" transform="translate(722.527344 0)"/>
     <use xlink:href="#ArialMT-74" transform="translate(772.527344 0)"/>
     <use xlink:href="#ArialMT-20" transform="translate(800.310547 0)"/>
     <use xlink:href="#ArialMT-4e" transform="translate(828.09375 0)"/>
     <use xlink:href="#ArialMT-6f" transform="translate(900.310547 0)"/>
     <use xlink:href="#ArialMT-72" transform="translate(955.925781 0)"/>
     <use xlink:href="#ArialMT-6d" transform="translate(989.226562 0)"/>
     <use xlink:href="#ArialMT-61" transform="translate(1072.527344 0)"/>
     <use xlink:href="#ArialMT-6c" transform="translate(1128.142578 0)"/>
     <use xlink:href="#ArialMT-69" transform="translate(1150.359375 0)"/>
     <use xlink:href="#ArialMT-7a" transform="translate(1172.576172 0)"/>
     <use xlink:href="#ArialMT-61" transform="translate(1222.576172 0)"/>
     <use xlink:href="#ArialMT-74" transform="translate(1278.191406 0)"/>
     <use xlink:href="#ArialMT-69" transform="translate(1305.974609 0)"/>
     <use xlink:href="#ArialMT-6f" transform="translate(1328.191406 0)"/>
     <use xlink:href="#ArialMT-6e" transform="translate(1383.806641 0)"/>
     <use xlink:href="#ArialMT-29" transform="translate(1439.421875 0)"/>
    </g>
   </g>
   <g id="legend_1">
    <g id="patch_9">
     <path d="M 595.1 122.690625 
L 641 122.690625 
Q 643 122.690625 643 120.690625 
L 643 93.4 
Q 643 91.4 641 91.4 
L 595.1 91.4 
Q 593.1 91.4 593.1 93.4 
L 593.1 120.690625 
Q 593.1 122.690625 595.1 122.690625 
z
" style="fill: #eaeaf2; opacity: 0.5; stroke: #cccccc; stroke-linejoin: miter"/>
    </g>
    <g id="line2d_15">
     <defs>
      <path id="m24e26a8107" d="M 0 3.535534 
C 0.937635 3.535534 1.836992 3.163008 2.5 2.5 
C 3.163008 1.836992 3.535534 0.937635 3.535534 0 
C 3.535534 -0.937635 3.163008 -1.836992 2.5 -2.5 
C 1.836992 -3.163008 0.937635 -3.535534 0 -3.535534 
C -0.937635 -3.535534 -1.836992 -3.163008 -2.5 -2.5 
C -3.163008 -1.836992 -3.535534 -0.937635 -3.535534 0 
C -3.535534 0.937635 -3.163008 1.836992 -2.5 2.5 
C -1.836992 3.163008 -0.937635 3.535534 0 3.535534 
z
" style="stroke: #ffffff; stroke-width: 0.565685"/>
     </defs>
     <g>
      <use xlink:href="#m24e26a8107" x="607.1" y="99.057812" style="fill: #1f77b4; stroke: #ffffff; stroke-width: 0.565685"/>
     </g>
    </g>
    <g id="text_16">
     <!-- 0.0 -->
     <g style="fill: #262626" transform="translate(625.1 102.557812) scale(0.1 -0.1)">
      <defs>
       <path id="ArialMT-2e" d="M 581 0 
L 581 641 
L 1222 641 
L 1222 0 
L 581 0 
z
" transform="scale(0.015625)"/>
      </defs>
      <use xlink:href="#ArialMT-30"/>
      <use xlink:href="#ArialMT-2e" transform="translate(55.615234 0)"/>
      <use xlink:href="#ArialMT-30" transform="translate(83.398438 0)"/>
     </g>
    </g>
    <g id="line2d_16">
     <defs>
      <path id="m430f0ab0f7" d="M 0 3.535534 
C 0.937635 3.535534 1.836992 3.163008 2.5 2.5 
C 3.163008 1.836992 3.535534 0.937635 3.535534 0 
C 3.535534 -0.937635 3.163008 -1.836992 2.5 -2.5 
C 1.836992 -3.163008 0.937635 -3.535534 0 -3.535534 
C -0.937635 -3.535534 -1.836992 -3.163008 -2.5 -2.5 
C -3.163008 -1.836992 -3.535534 -0.937635 -3.535534 0 
C -3.535534 0.937635 -3.163008 1.836992 -2.5 2.5 
C -1.836992 3.163008 -0.937635 3.535534 0 3.535534 
z
" style="stroke: #ffffff; stroke-width: 0.565685"/>
     </defs>
     <g>
      <use xlink:href="#m430f0ab0f7" x="607.1" y="113.203125" style="fill: #ff7f0e; stroke: #ffffff; stroke-width: 0.565685"/>
     </g>
    </g>
    <g id="text_17">
     <!-- 1.0 -->
     <g style="fill: #262626" transform="translate(625.1 116.703125) scale(0.1 -0.1)">
      <use xlink:href="#ArialMT-31"/>
      <use xlink:href="#ArialMT-2e" transform="translate(55.615234 0)"/>
      <use xlink:href="#ArialMT-30" transform="translate(83.398438 0)"/>
     </g>
    </g>
   </g>
  </g>
 </g>
 <defs>
  <clipPath id="pbfada79115">
   <rect x="90" y="86.4" width="558" height="554.4"/>
  </clipPath>
 </defs>
</svg>
