<?xml version="1.0" encoding="utf-8" standalone="no"?>
<!DOCTYPE svg PUBLIC "-//W3C//DTD SVG 1.1//EN"
  "http://www.w3.org/Graphics/SVG/1.1/DTD/svg11.dtd">
<svg xmlns:xlink="http://www.w3.org/1999/xlink" width="720pt" height="720pt" viewBox="0 0 720 720" xmlns="http://www.w3.org/2000/svg" version="1.1">
 <metadata>
  <rdf:RDF xmlns:dc="http://purl.org/dc/elements/1.1/" xmlns:cc="http://creativecommons.org/ns#" xmlns:rdf="http://www.w3.org/1999/02/22-rdf-syntax-ns#">
   <cc:Work>
    <dc:type rdf:resource="http://purl.org/dc/dcmitype/StillImage"/>
    <dc:date>2025-05-06T23:33:39.160555</dc:date>
    <dc:format>image/svg+xml</dc:format>
    <dc:creator>
     <cc:Agent>
      <dc:title>Matplotlib v3.10.1, https://matplotlib.org/</dc:title>
     </cc:Agent>
    </dc:creator>
   </cc:Work>
  </rdf:RDF>
 </metadata>
 <defs>
  <style type="text/css">*{stroke-linejoin: round; stroke-linecap: butt}</style>
 </defs>
 <g id="figure_1">
  <g id="patch_1">
   <path d="M 0 720 
L 720 720 
L 720 0 
L 0 0 
z
" style="fill: #ffffff"/>
  </g>
  <g id="axes_1">
   <g id="patch_2">
    <path d="M 90 640.8 
L 648 640.8 
L 648 86.4 
L 90 86.4 
z
" style="fill: #ffffff"/>
   </g>
   <g id="matplotlib.axis_1">
    <g id="xtick_1">
     <g id="line2d_1">
      <path d="M 101.460498 640.8 
L 101.460498 86.4 
" clip-path="url(#p9190a55860)" style="fill: none; stroke: #000000; stroke-width: 0.25; stroke-linecap: round"/>
     </g>
     <g id="text_1">
      <!-- −2 -->
      <g style="fill: #262626" transform="translate(95.759717 654.957813) scale(0.1 -0.1)">
       <defs>
        <path id="ArialMT-2212" d="M 3381 1997 
L 356 1997 
L 356 2522 
L 3381 2522 
L 3381 1997 
z
" transform="scale(0.015625)"/>
        <path id="ArialMT-32" d="M 3222 541 
L 3222 0 
L 194 0 
Q 188 203 259 391 
Q 375 700 629 1000 
Q 884 1300 1366 1694 
Q 2113 2306 2375 2664 
Q 2638 3022 2638 3341 
Q 2638 3675 2398 3904 
Q 2159 4134 1775 4134 
Q 1369 4134 1125 3890 
Q 881 3647 878 3216 
L 300 3275 
Q 359 3922 746 4261 
Q 1134 4600 1788 4600 
Q 2447 4600 2831 4234 
Q 3216 3869 3216 3328 
Q 3216 3053 3103 2787 
Q 2991 2522 2730 2228 
Q 2469 1934 1863 1422 
Q 1356 997 1212 845 
Q 1069 694 975 541 
L 3222 541 
z
" transform="scale(0.015625)"/>
       </defs>
       <use xlink:href="#ArialMT-2212"/>
       <use xlink:href="#ArialMT-32" transform="translate(58.398438 0)"/>
      </g>
     </g>
    </g>
    <g id="xtick_2">
     <g id="line2d_2">
      <path d="M 191.374274 640.8 
L 191.374274 86.4 
" clip-path="url(#p9190a55860)" style="fill: none; stroke: #000000; stroke-width: 0.25; stroke-linecap: round"/>
     </g>
     <g id="text_2">
      <!-- −1 -->
      <g style="fill: #262626" transform="translate(185.673492 654.957813) scale(0.1 -0.1)">
       <defs>
        <path id="ArialMT-31" d="M 2384 0 
L 1822 0 
L 1822 3584 
Q 1619 3391 1289 3197 
Q 959 3003 697 2906 
L 697 3450 
Q 1169 3672 1522 3987 
Q 1875 4303 2022 4600 
L 2384 4600 
L 2384 0 
z
" transform="scale(0.015625)"/>
       </defs>
       <use xlink:href="#ArialMT-2212"/>
       <use xlink:href="#ArialMT-31" transform="translate(58.398438 0)"/>
      </g>
     </g>
    </g>
    <g id="xtick_3">
     <g id="line2d_3">
      <path d="M 281.288049 640.8 
L 281.288049 86.4 
" clip-path="url(#p9190a55860)" style="fill: none; stroke: #000000; stroke-width: 0.25; stroke-linecap: round"/>
     </g>
     <g id="text_3">
      <!-- 0 -->
      <g style="fill: #262626" transform="translate(278.507581 654.957813) scale(0.1 -0.1)">
       <defs>
        <path id="ArialMT-30" d="M 266 2259 
Q 266 3072 433 3567 
Q 600 4063 929 4331 
Q 1259 4600 1759 4600 
Q 2128 4600 2406 4451 
Q 2684 4303 2865 4023 
Q 3047 3744 3150 3342 
Q 3253 2941 3253 2259 
Q 3253 1453 3087 958 
Q 2922 463 2592 192 
Q 2263 -78 1759 -78 
Q 1097 -78 719 397 
Q 266 969 266 2259 
z
M 844 2259 
Q 844 1131 1108 757 
Q 1372 384 1759 384 
Q 2147 384 2411 759 
Q 2675 1134 2675 2259 
Q 2675 3391 2411 3762 
Q 2147 4134 1753 4134 
Q 1366 4134 1134 3806 
Q 844 3388 844 2259 
z
" transform="scale(0.015625)"/>
       </defs>
       <use xlink:href="#ArialMT-30"/>
      </g>
     </g>
    </g>
    <g id="xtick_4">
     <g id="line2d_4">
      <path d="M 371.201825 640.8 
L 371.201825 86.4 
" clip-path="url(#p9190a55860)" style="fill: none; stroke: #000000; stroke-width: 0.25; stroke-linecap: round"/>
     </g>
     <g id="text_4">
      <!-- 1 -->
      <g style="fill: #262626" transform="translate(368.421356 654.957813) scale(0.1 -0.1)">
       <use xlink:href="#ArialMT-31"/>
      </g>
     </g>
    </g>
    <g id="xtick_5">
     <g id="line2d_5">
      <path d="M 461.1156 640.8 
L 461.1156 86.4 
" clip-path="url(#p9190a55860)" style="fill: none; stroke: #000000; stroke-width: 0.25; stroke-linecap: round"/>
     </g>
     <g id="text_5">
      <!-- 2 -->
      <g style="fill: #262626" transform="translate(458.335132 654.957813) scale(0.1 -0.1)">
       <use xlink:href="#ArialMT-32"/>
      </g>
     </g>
    </g>
    <g id="xtick_6">
     <g id="line2d_6">
      <path d="M 551.029376 640.8 
L 551.029376 86.4 
" clip-path="url(#p9190a55860)" style="fill: none; stroke: #000000; stroke-width: 0.25; stroke-linecap: round"/>
     </g>
     <g id="text_6">
      <!-- 3 -->
      <g style="fill: #262626" transform="translate(548.248907 654.957813) scale(0.1 -0.1)">
       <defs>
        <path id="ArialMT-33" d="M 269 1209 
L 831 1284 
Q 928 806 1161 595 
Q 1394 384 1728 384 
Q 2125 384 2398 659 
Q 2672 934 2672 1341 
Q 2672 1728 2419 1979 
Q 2166 2231 1775 2231 
Q 1616 2231 1378 2169 
L 1441 2663 
Q 1497 2656 1531 2656 
Q 1891 2656 2178 2843 
Q 2466 3031 2466 3422 
Q 2466 3731 2256 3934 
Q 2047 4138 1716 4138 
Q 1388 4138 1169 3931 
Q 950 3725 888 3313 
L 325 3413 
Q 428 3978 793 4289 
Q 1159 4600 1703 4600 
Q 2078 4600 2393 4439 
Q 2709 4278 2876 4000 
Q 3044 3722 3044 3409 
Q 3044 3113 2884 2869 
Q 2725 2625 2413 2481 
Q 2819 2388 3044 2092 
Q 3269 1797 3269 1353 
Q 3269 753 2831 336 
Q 2394 -81 1725 -81 
Q 1122 -81 723 278 
Q 325 638 269 1209 
z
" transform="scale(0.015625)"/>
       </defs>
       <use xlink:href="#ArialMT-33"/>
      </g>
     </g>
    </g>
    <g id="xtick_7">
     <g id="line2d_7">
      <path d="M 640.943152 640.8 
L 640.943152 86.4 
" clip-path="url(#p9190a55860)" style="fill: none; stroke: #000000; stroke-width: 0.25; stroke-linecap: round"/>
     </g>
     <g id="text_7">
      <!-- 4 -->
      <g style="fill: #262626" transform="translate(638.162683 654.957813) scale(0.1 -0.1)">
       <defs>
        <path id="ArialMT-34" d="M 2069 0 
L 2069 1097 
L 81 1097 
L 81 1613 
L 2172 4581 
L 2631 4581 
L 2631 1613 
L 3250 1613 
L 3250 1097 
L 2631 1097 
L 2631 0 
L 2069 0 
z
M 2069 1613 
L 2069 3678 
L 634 1613 
L 2069 1613 
z
" transform="scale(0.015625)"/>
       </defs>
       <use xlink:href="#ArialMT-34"/>
      </g>
     </g>
    </g>
    <g id="text_8">
     <!-- PC1 -->
     <g style="fill: #262626" transform="translate(359.273438 668.103125) scale(0.1 -0.1)">
      <defs>
       <path id="ArialMT-50" d="M 494 0 
L 494 4581 
L 2222 4581 
Q 2678 4581 2919 4538 
Q 3256 4481 3484 4323 
Q 3713 4166 3852 3881 
Q 3991 3597 3991 3256 
Q 3991 2672 3619 2267 
Q 3247 1863 2275 1863 
L 1100 1863 
L 1100 0 
L 494 0 
z
M 1100 2403 
L 2284 2403 
Q 2872 2403 3119 2622 
Q 3366 2841 3366 3238 
Q 3366 3525 3220 3729 
Q 3075 3934 2838 4000 
Q 2684 4041 2272 4041 
L 1100 4041 
L 1100 2403 
z
" transform="scale(0.015625)"/>
       <path id="ArialMT-43" d="M 3763 1606 
L 4369 1453 
Q 4178 706 3683 314 
Q 3188 -78 2472 -78 
Q 1731 -78 1267 223 
Q 803 525 561 1097 
Q 319 1669 319 2325 
Q 319 3041 592 3573 
Q 866 4106 1370 4382 
Q 1875 4659 2481 4659 
Q 3169 4659 3637 4309 
Q 4106 3959 4291 3325 
L 3694 3184 
Q 3534 3684 3231 3912 
Q 2928 4141 2469 4141 
Q 1941 4141 1586 3887 
Q 1231 3634 1087 3207 
Q 944 2781 944 2328 
Q 944 1744 1114 1308 
Q 1284 872 1643 656 
Q 2003 441 2422 441 
Q 2931 441 3284 734 
Q 3638 1028 3763 1606 
z
" transform="scale(0.015625)"/>
      </defs>
      <use xlink:href="#ArialMT-50"/>
      <use xlink:href="#ArialMT-43" transform="translate(66.699219 0)"/>
      <use xlink:href="#ArialMT-31" transform="translate(138.916016 0)"/>
     </g>
    </g>
   </g>
   <g id="matplotlib.axis_2">
    <g id="ytick_1">
     <g id="line2d_8">
      <path d="M 90 559.915501 
L 648 559.915501 
" clip-path="url(#p9190a55860)" style="fill: none; stroke: #000000; stroke-width: 0.25; stroke-linecap: round"/>
     </g>
     <g id="text_9">
      <!-- −1 -->
      <g style="fill: #262626" transform="translate(71.598438 563.494408) scale(0.1 -0.1)">
       <use xlink:href="#ArialMT-2212"/>
       <use xlink:href="#ArialMT-31" transform="translate(58.398438 0)"/>
      </g>
     </g>
    </g>
    <g id="ytick_2">
     <g id="line2d_9">
      <path d="M 90 455.764455 
L 648 455.764455 
" clip-path="url(#p9190a55860)" style="fill: none; stroke: #000000; stroke-width: 0.25; stroke-linecap: round"/>
     </g>
     <g id="text_10">
      <!-- 0 -->
      <g style="fill: #262626" transform="translate(77.439063 459.343361) scale(0.1 -0.1)">
       <use xlink:href="#ArialMT-30"/>
      </g>
     </g>
    </g>
    <g id="ytick_3">
     <g id="line2d_10">
      <path d="M 90 351.613408 
L 648 351.613408 
" clip-path="url(#p9190a55860)" style="fill: none; stroke: #000000; stroke-width: 0.25; stroke-linecap: round"/>
     </g>
     <g id="text_11">
      <!-- 1 -->
      <g style="fill: #262626" transform="translate(77.439063 355.192314) scale(0.1 -0.1)">
       <use xlink:href="#ArialMT-31"/>
      </g>
     </g>
    </g>
    <g id="ytick_4">
     <g id="line2d_11">
      <path d="M 90 247.462361 
L 648 247.462361 
" clip-path="url(#p9190a55860)" style="fill: none; stroke: #000000; stroke-width: 0.25; stroke-linecap: round"/>
     </g>
     <g id="text_12">
      <!-- 2 -->
      <g style="fill: #262626" transform="translate(77.439063 251.041267) scale(0.1 -0.1)">
       <use xlink:href="#ArialMT-32"/>
      </g>
     </g>
    </g>
    <g id="ytick_5">
     <g id="line2d_12">
      <path d="M 90 143.311314 
L 648 143.311314 
" clip-path="url(#p9190a55860)" style="fill: none; stroke: #000000; stroke-width: 0.25; stroke-linecap: round"/>
     </g>
     <g id="text_13">
      <!-- 3 -->
      <g style="fill: #262626" transform="translate(77.439063 146.890221) scale(0.1 -0.1)">
       <use xlink:href="#ArialMT-33"/>
      </g>
     </g>
    </g>
    <g id="text_14">
     <!-- PC2 -->
     <g style="fill: #262626" transform="translate(65.610938 373.326562) rotate(-90) scale(0.1 -0.1)">
      <use xlink:href="#ArialMT-50"/>
      <use xlink:href="#ArialMT-43" transform="translate(66.699219 0)"/>
      <use xlink:href="#ArialMT-32" transform="translate(138.916016 0)"/>
     </g>
    </g>
   </g>
   <g id="PathCollection_1">
    <defs>
     <path id="C0_0_14e2daf7b6" d="M 0 3.535534 
C 0.937635 3.535534 1.836992 3.163008 2.5 2.5 
C 3.163008 1.836992 3.535534 0.937635 3.535534 -0 
C 3.535534 -0.937635 3.163008 -1.836992 2.5 -2.5 
C 1.836992 -3.163008 0.937635 -3.535534 0 -3.535534 
C -0.937635 -3.535534 -1.836992 -3.163008 -2.5 -2.5 
C -3.163008 -1.836992 -3.535534 -0.937635 -3.535534 0 
C -3.535534 0.937635 -3.163008 1.836992 -2.5 2.5 
C -1.836992 3.163008 -0.937635 3.535534 0 3.535534 
z
"/>
    </defs>
    <g clip-path="url(#p9190a55860)">
     <use xlink:href="#C0_0_14e2daf7b6" x="183.872188" y="591.604224" style="fill: #008000; stroke: #ffffff; stroke-width: 0.565685"/>
    </g>
    <g clip-path="url(#p9190a55860)">
     <use xlink:href="#C0_0_14e2daf7b6" x="138.023968" y="480.661882" style="fill: #ff0000; stroke: #ffffff; stroke-width: 0.565685"/>
    </g>
    <g clip-path="url(#p9190a55860)">
     <use xlink:href="#C0_0_14e2daf7b6" x="135.694643" y="550.457813" style="fill: #008000; stroke: #ffffff; stroke-width: 0.565685"/>
    </g>
    <g clip-path="url(#p9190a55860)">
     <use xlink:href="#C0_0_14e2daf7b6" x="221.681923" y="220.726839" style="fill: #ff0000; stroke: #ffffff; stroke-width: 0.565685"/>
    </g>
    <g clip-path="url(#p9190a55860)">
     <use xlink:href="#C0_0_14e2daf7b6" x="538.974038" y="499.17617" style="fill: #008000; stroke: #ffffff; stroke-width: 0.565685"/>
    </g>
    <g clip-path="url(#p9190a55860)">
     <use xlink:href="#C0_0_14e2daf7b6" x="167.557967" y="530.693882" style="fill: #ff0000; stroke: #ffffff; stroke-width: 0.565685"/>
    </g>
    <g clip-path="url(#p9190a55860)">
     <use xlink:href="#C0_0_14e2daf7b6" x="510.441555" y="484.670021" style="fill: #008000; stroke: #ffffff; stroke-width: 0.565685"/>
    </g>
    <g clip-path="url(#p9190a55860)">
     <use xlink:href="#C0_0_14e2daf7b6" x="115.363636" y="479.088503" style="fill: #ff0000; stroke: #ffffff; stroke-width: 0.565685"/>
    </g>
    <g clip-path="url(#p9190a55860)">
     <use xlink:href="#C0_0_14e2daf7b6" x="620.073806" y="528.559853" style="fill: #008000; stroke: #ffffff; stroke-width: 0.565685"/>
    </g>
    <g clip-path="url(#p9190a55860)">
     <use xlink:href="#C0_0_14e2daf7b6" x="141.014491" y="472.420134" style="fill: #ff0000; stroke: #ffffff; stroke-width: 0.565685"/>
    </g>
    <g clip-path="url(#p9190a55860)">
     <use xlink:href="#C0_0_14e2daf7b6" x="213.65826" y="469.250259" style="fill: #008000; stroke: #ffffff; stroke-width: 0.565685"/>
    </g>
    <g clip-path="url(#p9190a55860)">
     <use xlink:href="#C0_0_14e2daf7b6" x="213.762806" y="420.440952" style="fill: #ff0000; stroke: #ffffff; stroke-width: 0.565685"/>
    </g>
    <g clip-path="url(#p9190a55860)">
     <use xlink:href="#C0_0_14e2daf7b6" x="123.093855" y="520.194785" style="fill: #008000; stroke: #ffffff; stroke-width: 0.565685"/>
    </g>
    <g clip-path="url(#p9190a55860)">
     <use xlink:href="#C0_0_14e2daf7b6" x="215.282722" y="497.033495" style="fill: #ff0000; stroke: #ffffff; stroke-width: 0.565685"/>
    </g>
    <g clip-path="url(#p9190a55860)">
     <use xlink:href="#C0_0_14e2daf7b6" x="493.993297" y="432.787527" style="fill: #008000; stroke: #ffffff; stroke-width: 0.565685"/>
    </g>
    <g clip-path="url(#p9190a55860)">
     <use xlink:href="#C0_0_14e2daf7b6" x="177.997506" y="426.367755" style="fill: #ff0000; stroke: #ffffff; stroke-width: 0.565685"/>
    </g>
    <g clip-path="url(#p9190a55860)">
     <use xlink:href="#C0_0_14e2daf7b6" x="405.912711" y="443.362867" style="fill: #008000; stroke: #ffffff; stroke-width: 0.565685"/>
    </g>
    <g clip-path="url(#p9190a55860)">
     <use xlink:href="#C0_0_14e2daf7b6" x="144.944176" y="448.101721" style="fill: #ff0000; stroke: #ffffff; stroke-width: 0.565685"/>
    </g>
    <g clip-path="url(#p9190a55860)">
     <use xlink:href="#C0_0_14e2daf7b6" x="541.350528" y="450.830346" style="fill: #008000; stroke: #ffffff; stroke-width: 0.565685"/>
    </g>
    <g clip-path="url(#p9190a55860)">
     <use xlink:href="#C0_0_14e2daf7b6" x="237.070538" y="111.6" style="fill: #ff0000; stroke: #ffffff; stroke-width: 0.565685"/>
    </g>
    <g clip-path="url(#p9190a55860)">
     <use xlink:href="#C0_0_14e2daf7b6" x="201.363841" y="615.6" style="fill: #008000; stroke: #ffffff; stroke-width: 0.565685"/>
    </g>
    <g clip-path="url(#p9190a55860)">
     <use xlink:href="#C0_0_14e2daf7b6" x="146.221349" y="473.791226" style="fill: #ff0000; stroke: #ffffff; stroke-width: 0.565685"/>
    </g>
    <g clip-path="url(#p9190a55860)">
     <use xlink:href="#C0_0_14e2daf7b6" x="140.644808" y="518.412987" style="fill: #008000; stroke: #ffffff; stroke-width: 0.565685"/>
    </g>
    <g clip-path="url(#p9190a55860)">
     <use xlink:href="#C0_0_14e2daf7b6" x="135.685678" y="493.809728" style="fill: #ff0000; stroke: #ffffff; stroke-width: 0.565685"/>
    </g>
    <g clip-path="url(#p9190a55860)">
     <use xlink:href="#C0_0_14e2daf7b6" x="509.400084" y="454.18914" style="fill: #008000; stroke: #ffffff; stroke-width: 0.565685"/>
    </g>
    <g clip-path="url(#p9190a55860)">
     <use xlink:href="#C0_0_14e2daf7b6" x="136.011301" y="475.576073" style="fill: #ff0000; stroke: #ffffff; stroke-width: 0.565685"/>
    </g>
    <g clip-path="url(#p9190a55860)">
     <use xlink:href="#C0_0_14e2daf7b6" x="431.773012" y="464.852774" style="fill: #008000; stroke: #ffffff; stroke-width: 0.565685"/>
    </g>
    <g clip-path="url(#p9190a55860)">
     <use xlink:href="#C0_0_14e2daf7b6" x="223.904423" y="179.630346" style="fill: #ff0000; stroke: #ffffff; stroke-width: 0.565685"/>
    </g>
    <g clip-path="url(#p9190a55860)">
     <use xlink:href="#C0_0_14e2daf7b6" x="622.636364" y="468.578446" style="fill: #008000; stroke: #ffffff; stroke-width: 0.565685"/>
    </g>
    <g clip-path="url(#p9190a55860)">
     <use xlink:href="#C0_0_14e2daf7b6" x="146.666627" y="457.318401" style="fill: #ff0000; stroke: #ffffff; stroke-width: 0.565685"/>
    </g>
    <g clip-path="url(#p9190a55860)">
     <use xlink:href="#C0_0_14e2daf7b6" x="520.037996" y="457.821809" style="fill: #008000; stroke: #ffffff; stroke-width: 0.565685"/>
    </g>
    <g clip-path="url(#p9190a55860)">
     <use xlink:href="#C0_0_14e2daf7b6" x="247.107482" y="466.85259" style="fill: #ff0000; stroke: #ffffff; stroke-width: 0.565685"/>
    </g>
   </g>
   <g id="patch_3">
    <path d="M 207.557278 424.787738 
C 215.391627 391.625354 219.530352 358.746688 219.061947 333.392884 
C 218.593542 308.039081 213.55625 292.280167 205.059477 289.586859 
C 196.562703 286.893551 185.300172 297.485747 173.752325 319.030637 
C 162.204478 340.575528 151.314145 371.314069 143.479796 404.476453 
C 135.645447 437.638837 131.506722 470.517503 131.975127 495.871306 
C 132.443532 521.225109 137.480824 536.984024 145.977597 539.677332 
C 154.474371 542.37064 165.736902 531.778444 177.284749 510.233554 
C 188.832596 488.688663 199.722929 457.950122 207.557278 424.787738 
z
" clip-path="url(#p9190a55860)" style="fill: #ff0000; opacity: 0.1; stroke: #ff0000; stroke-width: 2; stroke-linejoin: miter"/>
   </g>
   <g id="patch_4">
    <path d="M 381.45225 454.716695 
C 332.203142 463.498123 285.555131 476.365431 251.781899 490.484745 
C 218.008668 504.604059 199.867651 518.822599 201.354197 530.008897 
C 202.840743 541.195196 223.833482 548.43594 259.709007 550.136441 
C 295.584531 551.836941 343.413765 547.85836 392.662873 539.076932 
C 441.911981 530.295505 488.559992 517.428197 522.333224 503.308883 
C 556.106455 489.189569 574.247472 474.971028 572.760926 463.78473 
C 571.274381 452.598432 550.281642 445.357688 514.406117 443.657187 
C 478.530592 441.956687 430.701358 445.935268 381.45225 454.716695 
z
" clip-path="url(#p9190a55860)" style="fill: #008000; opacity: 0.1; stroke: #008000; stroke-width: 2; stroke-linejoin: miter"/>
   </g>
   <g id="line2d_13"/>
   <g id="line2d_14"/>
   <g id="patch_5">
    <path d="M 90 640.8 
L 90 86.4 
" style="fill: none; stroke: #ffffff; stroke-width: 0.8; stroke-linejoin: miter; stroke-linecap: square"/>
   </g>
   <g id="patch_6">
    <path d="M 648 640.8 
L 648 86.4 
" style="fill: none; stroke: #ffffff; stroke-width: 0.8; stroke-linejoin: miter; stroke-linecap: square"/>
   </g>
   <g id="patch_7">
    <path d="M 90 640.8 
L 648 640.8 
" style="fill: none; stroke: #ffffff; stroke-width: 0.8; stroke-linejoin: miter; stroke-linecap: square"/>
   </g>
   <g id="patch_8">
    <path d="M 90 86.4 
L 648 86.4 
" style="fill: none; stroke: #ffffff; stroke-width: 0.8; stroke-linejoin: miter; stroke-linecap: square"/>
   </g>
   <g id="text_15">
    <!-- PCA of PLAT with Pairs (Paired By Treatment, Only CD8, 50% Protein Conc) -->
    <g style="fill: #262626" transform="translate(165.140625 80.4) scale(0.12 -0.12)">
     <defs>
      <path id="ArialMT-41" d="M -9 0 
L 1750 4581 
L 2403 4581 
L 4278 0 
L 3588 0 
L 3053 1388 
L 1138 1388 
L 634 0 
L -9 0 
z
M 1313 1881 
L 2866 1881 
L 2388 3150 
Q 2169 3728 2063 4100 
Q 1975 3659 1816 3225 
L 1313 1881 
z
" transform="scale(0.015625)"/>
      <path id="ArialMT-20" transform="scale(0.015625)"/>
      <path id="ArialMT-6f" d="M 213 1659 
Q 213 2581 725 3025 
Q 1153 3394 1769 3394 
Q 2453 3394 2887 2945 
Q 3322 2497 3322 1706 
Q 3322 1066 3130 698 
Q 2938 331 2570 128 
Q 2203 -75 1769 -75 
Q 1072 -75 642 372 
Q 213 819 213 1659 
z
M 791 1659 
Q 791 1022 1069 705 
Q 1347 388 1769 388 
Q 2188 388 2466 706 
Q 2744 1025 2744 1678 
Q 2744 2294 2464 2611 
Q 2184 2928 1769 2928 
Q 1347 2928 1069 2612 
Q 791 2297 791 1659 
z
" transform="scale(0.015625)"/>
      <path id="ArialMT-66" d="M 556 0 
L 556 2881 
L 59 2881 
L 59 3319 
L 556 3319 
L 556 3672 
Q 556 4006 616 4169 
Q 697 4388 901 4523 
Q 1106 4659 1475 4659 
Q 1713 4659 2000 4603 
L 1916 4113 
Q 1741 4144 1584 4144 
Q 1328 4144 1222 4034 
Q 1116 3925 1116 3625 
L 1116 3319 
L 1763 3319 
L 1763 2881 
L 1116 2881 
L 1116 0 
L 556 0 
z
" transform="scale(0.015625)"/>
      <path id="ArialMT-4c" d="M 469 0 
L 469 4581 
L 1075 4581 
L 1075 541 
L 3331 541 
L 3331 0 
L 469 0 
z
" transform="scale(0.015625)"/>
      <path id="ArialMT-54" d="M 1659 0 
L 1659 4041 
L 150 4041 
L 150 4581 
L 3781 4581 
L 3781 4041 
L 2266 4041 
L 2266 0 
L 1659 0 
z
" transform="scale(0.015625)"/>
      <path id="ArialMT-77" d="M 1034 0 
L 19 3319 
L 600 3319 
L 1128 1403 
L 1325 691 
Q 1338 744 1497 1375 
L 2025 3319 
L 2603 3319 
L 3100 1394 
L 3266 759 
L 3456 1400 
L 4025 3319 
L 4572 3319 
L 3534 0 
L 2950 0 
L 2422 1988 
L 2294 2553 
L 1622 0 
L 1034 0 
z
" transform="scale(0.015625)"/>
      <path id="ArialMT-69" d="M 425 3934 
L 425 4581 
L 988 4581 
L 988 3934 
L 425 3934 
z
M 425 0 
L 425 3319 
L 988 3319 
L 988 0 
L 425 0 
z
" transform="scale(0.015625)"/>
      <path id="ArialMT-74" d="M 1650 503 
L 1731 6 
Q 1494 -44 1306 -44 
Q 1000 -44 831 53 
Q 663 150 594 308 
Q 525 466 525 972 
L 525 2881 
L 113 2881 
L 113 3319 
L 525 3319 
L 525 4141 
L 1084 4478 
L 1084 3319 
L 1650 3319 
L 1650 2881 
L 1084 2881 
L 1084 941 
Q 1084 700 1114 631 
Q 1144 563 1211 522 
Q 1278 481 1403 481 
Q 1497 481 1650 503 
z
" transform="scale(0.015625)"/>
      <path id="ArialMT-68" d="M 422 0 
L 422 4581 
L 984 4581 
L 984 2938 
Q 1378 3394 1978 3394 
Q 2347 3394 2619 3248 
Q 2891 3103 3008 2847 
Q 3125 2591 3125 2103 
L 3125 0 
L 2563 0 
L 2563 2103 
Q 2563 2525 2380 2717 
Q 2197 2909 1863 2909 
Q 1613 2909 1392 2779 
Q 1172 2650 1078 2428 
Q 984 2206 984 1816 
L 984 0 
L 422 0 
z
" transform="scale(0.015625)"/>
      <path id="ArialMT-61" d="M 2588 409 
Q 2275 144 1986 34 
Q 1697 -75 1366 -75 
Q 819 -75 525 192 
Q 231 459 231 875 
Q 231 1119 342 1320 
Q 453 1522 633 1644 
Q 813 1766 1038 1828 
Q 1203 1872 1538 1913 
Q 2219 1994 2541 2106 
Q 2544 2222 2544 2253 
Q 2544 2597 2384 2738 
Q 2169 2928 1744 2928 
Q 1347 2928 1158 2789 
Q 969 2650 878 2297 
L 328 2372 
Q 403 2725 575 2942 
Q 747 3159 1072 3276 
Q 1397 3394 1825 3394 
Q 2250 3394 2515 3294 
Q 2781 3194 2906 3042 
Q 3031 2891 3081 2659 
Q 3109 2516 3109 2141 
L 3109 1391 
Q 3109 606 3145 398 
Q 3181 191 3288 0 
L 2700 0 
Q 2613 175 2588 409 
z
M 2541 1666 
Q 2234 1541 1622 1453 
Q 1275 1403 1131 1340 
Q 988 1278 909 1158 
Q 831 1038 831 891 
Q 831 666 1001 516 
Q 1172 366 1500 366 
Q 1825 366 2078 508 
Q 2331 650 2450 897 
Q 2541 1088 2541 1459 
L 2541 1666 
z
" transform="scale(0.015625)"/>
      <path id="ArialMT-72" d="M 416 0 
L 416 3319 
L 922 3319 
L 922 2816 
Q 1116 3169 1280 3281 
Q 1444 3394 1641 3394 
Q 1925 3394 2219 3213 
L 2025 2691 
Q 1819 2813 1613 2813 
Q 1428 2813 1281 2702 
Q 1134 2591 1072 2394 
Q 978 2094 978 1738 
L 978 0 
L 416 0 
z
" transform="scale(0.015625)"/>
      <path id="ArialMT-73" d="M 197 991 
L 753 1078 
Q 800 744 1014 566 
Q 1228 388 1613 388 
Q 2000 388 2187 545 
Q 2375 703 2375 916 
Q 2375 1106 2209 1216 
Q 2094 1291 1634 1406 
Q 1016 1563 777 1677 
Q 538 1791 414 1992 
Q 291 2194 291 2438 
Q 291 2659 392 2848 
Q 494 3038 669 3163 
Q 800 3259 1026 3326 
Q 1253 3394 1513 3394 
Q 1903 3394 2198 3281 
Q 2494 3169 2634 2976 
Q 2775 2784 2828 2463 
L 2278 2388 
Q 2241 2644 2061 2787 
Q 1881 2931 1553 2931 
Q 1166 2931 1000 2803 
Q 834 2675 834 2503 
Q 834 2394 903 2306 
Q 972 2216 1119 2156 
Q 1203 2125 1616 2013 
Q 2213 1853 2448 1751 
Q 2684 1650 2818 1456 
Q 2953 1263 2953 975 
Q 2953 694 2789 445 
Q 2625 197 2315 61 
Q 2006 -75 1616 -75 
Q 969 -75 630 194 
Q 291 463 197 991 
z
" transform="scale(0.015625)"/>
      <path id="ArialMT-28" d="M 1497 -1347 
Q 1031 -759 709 28 
Q 388 816 388 1659 
Q 388 2403 628 3084 
Q 909 3875 1497 4659 
L 1900 4659 
Q 1522 4009 1400 3731 
Q 1209 3300 1100 2831 
Q 966 2247 966 1656 
Q 966 153 1900 -1347 
L 1497 -1347 
z
" transform="scale(0.015625)"/>
      <path id="ArialMT-65" d="M 2694 1069 
L 3275 997 
Q 3138 488 2766 206 
Q 2394 -75 1816 -75 
Q 1088 -75 661 373 
Q 234 822 234 1631 
Q 234 2469 665 2931 
Q 1097 3394 1784 3394 
Q 2450 3394 2872 2941 
Q 3294 2488 3294 1666 
Q 3294 1616 3291 1516 
L 816 1516 
Q 847 969 1125 678 
Q 1403 388 1819 388 
Q 2128 388 2347 550 
Q 2566 713 2694 1069 
z
M 847 1978 
L 2700 1978 
Q 2663 2397 2488 2606 
Q 2219 2931 1791 2931 
Q 1403 2931 1139 2672 
Q 875 2413 847 1978 
z
" transform="scale(0.015625)"/>
      <path id="ArialMT-64" d="M 2575 0 
L 2575 419 
Q 2259 -75 1647 -75 
Q 1250 -75 917 144 
Q 584 363 401 755 
Q 219 1147 219 1656 
Q 219 2153 384 2558 
Q 550 2963 881 3178 
Q 1213 3394 1622 3394 
Q 1922 3394 2156 3267 
Q 2391 3141 2538 2938 
L 2538 4581 
L 3097 4581 
L 3097 0 
L 2575 0 
z
M 797 1656 
Q 797 1019 1065 703 
Q 1334 388 1700 388 
Q 2069 388 2326 689 
Q 2584 991 2584 1609 
Q 2584 2291 2321 2609 
Q 2059 2928 1675 2928 
Q 1300 2928 1048 2622 
Q 797 2316 797 1656 
z
" transform="scale(0.015625)"/>
      <path id="ArialMT-42" d="M 469 0 
L 469 4581 
L 2188 4581 
Q 2713 4581 3030 4442 
Q 3347 4303 3526 4014 
Q 3706 3725 3706 3409 
Q 3706 3116 3547 2856 
Q 3388 2597 3066 2438 
Q 3481 2316 3704 2022 
Q 3928 1728 3928 1328 
Q 3928 1006 3792 729 
Q 3656 453 3456 303 
Q 3256 153 2954 76 
Q 2653 0 2216 0 
L 469 0 
z
M 1075 2656 
L 2066 2656 
Q 2469 2656 2644 2709 
Q 2875 2778 2992 2937 
Q 3109 3097 3109 3338 
Q 3109 3566 3000 3739 
Q 2891 3913 2687 3977 
Q 2484 4041 1991 4041 
L 1075 4041 
L 1075 2656 
z
M 1075 541 
L 2216 541 
Q 2509 541 2628 563 
Q 2838 600 2978 687 
Q 3119 775 3209 942 
Q 3300 1109 3300 1328 
Q 3300 1584 3169 1773 
Q 3038 1963 2805 2039 
Q 2572 2116 2134 2116 
L 1075 2116 
L 1075 541 
z
" transform="scale(0.015625)"/>
      <path id="ArialMT-79" d="M 397 -1278 
L 334 -750 
Q 519 -800 656 -800 
Q 844 -800 956 -737 
Q 1069 -675 1141 -563 
Q 1194 -478 1313 -144 
Q 1328 -97 1363 -6 
L 103 3319 
L 709 3319 
L 1400 1397 
Q 1534 1031 1641 628 
Q 1738 1016 1872 1384 
L 2581 3319 
L 3144 3319 
L 1881 -56 
Q 1678 -603 1566 -809 
Q 1416 -1088 1222 -1217 
Q 1028 -1347 759 -1347 
Q 597 -1347 397 -1278 
z
" transform="scale(0.015625)"/>
      <path id="ArialMT-6d" d="M 422 0 
L 422 3319 
L 925 3319 
L 925 2853 
Q 1081 3097 1340 3245 
Q 1600 3394 1931 3394 
Q 2300 3394 2536 3241 
Q 2772 3088 2869 2813 
Q 3263 3394 3894 3394 
Q 4388 3394 4653 3120 
Q 4919 2847 4919 2278 
L 4919 0 
L 4359 0 
L 4359 2091 
Q 4359 2428 4304 2576 
Q 4250 2725 4106 2815 
Q 3963 2906 3769 2906 
Q 3419 2906 3187 2673 
Q 2956 2441 2956 1928 
L 2956 0 
L 2394 0 
L 2394 2156 
Q 2394 2531 2256 2718 
Q 2119 2906 1806 2906 
Q 1569 2906 1367 2781 
Q 1166 2656 1075 2415 
Q 984 2175 984 1722 
L 984 0 
L 422 0 
z
" transform="scale(0.015625)"/>
      <path id="ArialMT-6e" d="M 422 0 
L 422 3319 
L 928 3319 
L 928 2847 
Q 1294 3394 1984 3394 
Q 2284 3394 2536 3286 
Q 2788 3178 2913 3003 
Q 3038 2828 3088 2588 
Q 3119 2431 3119 2041 
L 3119 0 
L 2556 0 
L 2556 2019 
Q 2556 2363 2490 2533 
Q 2425 2703 2258 2804 
Q 2091 2906 1866 2906 
Q 1506 2906 1245 2678 
Q 984 2450 984 1813 
L 984 0 
L 422 0 
z
" transform="scale(0.015625)"/>
      <path id="ArialMT-2c" d="M 569 0 
L 569 641 
L 1209 641 
L 1209 0 
Q 1209 -353 1084 -570 
Q 959 -788 688 -906 
L 531 -666 
Q 709 -588 793 -436 
Q 878 -284 888 0 
L 569 0 
z
" transform="scale(0.015625)"/>
      <path id="ArialMT-4f" d="M 309 2231 
Q 309 3372 921 4017 
Q 1534 4663 2503 4663 
Q 3138 4663 3647 4359 
Q 4156 4056 4423 3514 
Q 4691 2972 4691 2284 
Q 4691 1588 4409 1038 
Q 4128 488 3612 205 
Q 3097 -78 2500 -78 
Q 1853 -78 1343 234 
Q 834 547 571 1087 
Q 309 1628 309 2231 
z
M 934 2222 
Q 934 1394 1379 917 
Q 1825 441 2497 441 
Q 3181 441 3623 922 
Q 4066 1403 4066 2288 
Q 4066 2847 3877 3264 
Q 3688 3681 3323 3911 
Q 2959 4141 2506 4141 
Q 1863 4141 1398 3698 
Q 934 3256 934 2222 
z
" transform="scale(0.015625)"/>
      <path id="ArialMT-6c" d="M 409 0 
L 409 4581 
L 972 4581 
L 972 0 
L 409 0 
z
" transform="scale(0.015625)"/>
      <path id="ArialMT-44" d="M 494 0 
L 494 4581 
L 2072 4581 
Q 2606 4581 2888 4516 
Q 3281 4425 3559 4188 
Q 3922 3881 4101 3404 
Q 4281 2928 4281 2316 
Q 4281 1794 4159 1391 
Q 4038 988 3847 723 
Q 3656 459 3429 307 
Q 3203 156 2883 78 
Q 2563 0 2147 0 
L 494 0 
z
M 1100 541 
L 2078 541 
Q 2531 541 2789 625 
Q 3047 709 3200 863 
Q 3416 1078 3536 1442 
Q 3656 1806 3656 2325 
Q 3656 3044 3420 3430 
Q 3184 3816 2847 3947 
Q 2603 4041 2063 4041 
L 1100 4041 
L 1100 541 
z
" transform="scale(0.015625)"/>
      <path id="ArialMT-38" d="M 1131 2484 
Q 781 2613 612 2850 
Q 444 3088 444 3419 
Q 444 3919 803 4259 
Q 1163 4600 1759 4600 
Q 2359 4600 2725 4251 
Q 3091 3903 3091 3403 
Q 3091 3084 2923 2848 
Q 2756 2613 2416 2484 
Q 2838 2347 3058 2040 
Q 3278 1734 3278 1309 
Q 3278 722 2862 322 
Q 2447 -78 1769 -78 
Q 1091 -78 675 323 
Q 259 725 259 1325 
Q 259 1772 486 2073 
Q 713 2375 1131 2484 
z
M 1019 3438 
Q 1019 3113 1228 2906 
Q 1438 2700 1772 2700 
Q 2097 2700 2305 2904 
Q 2513 3109 2513 3406 
Q 2513 3716 2298 3927 
Q 2084 4138 1766 4138 
Q 1444 4138 1231 3931 
Q 1019 3725 1019 3438 
z
M 838 1322 
Q 838 1081 952 856 
Q 1066 631 1291 507 
Q 1516 384 1775 384 
Q 2178 384 2440 643 
Q 2703 903 2703 1303 
Q 2703 1709 2433 1975 
Q 2163 2241 1756 2241 
Q 1359 2241 1098 1978 
Q 838 1716 838 1322 
z
" transform="scale(0.015625)"/>
      <path id="ArialMT-35" d="M 266 1200 
L 856 1250 
Q 922 819 1161 601 
Q 1400 384 1738 384 
Q 2144 384 2425 690 
Q 2706 997 2706 1503 
Q 2706 1984 2436 2262 
Q 2166 2541 1728 2541 
Q 1456 2541 1237 2417 
Q 1019 2294 894 2097 
L 366 2166 
L 809 4519 
L 3088 4519 
L 3088 3981 
L 1259 3981 
L 1013 2750 
Q 1425 3038 1878 3038 
Q 2478 3038 2890 2622 
Q 3303 2206 3303 1553 
Q 3303 931 2941 478 
Q 2500 -78 1738 -78 
Q 1113 -78 717 272 
Q 322 622 266 1200 
z
" transform="scale(0.015625)"/>
      <path id="ArialMT-25" d="M 372 3481 
Q 372 3972 619 4315 
Q 866 4659 1334 4659 
Q 1766 4659 2048 4351 
Q 2331 4044 2331 3447 
Q 2331 2866 2045 2552 
Q 1759 2238 1341 2238 
Q 925 2238 648 2547 
Q 372 2856 372 3481 
z
M 1350 4272 
Q 1141 4272 1002 4090 
Q 863 3909 863 3425 
Q 863 2984 1003 2804 
Q 1144 2625 1350 2625 
Q 1563 2625 1702 2806 
Q 1841 2988 1841 3469 
Q 1841 3913 1700 4092 
Q 1559 4272 1350 4272 
z
M 1353 -169 
L 3859 4659 
L 4316 4659 
L 1819 -169 
L 1353 -169 
z
M 3334 1075 
Q 3334 1569 3581 1911 
Q 3828 2253 4300 2253 
Q 4731 2253 5014 1945 
Q 5297 1638 5297 1041 
Q 5297 459 5011 145 
Q 4725 -169 4303 -169 
Q 3888 -169 3611 142 
Q 3334 453 3334 1075 
z
M 4316 1866 
Q 4103 1866 3964 1684 
Q 3825 1503 3825 1019 
Q 3825 581 3965 400 
Q 4106 219 4313 219 
Q 4528 219 4667 400 
Q 4806 581 4806 1063 
Q 4806 1506 4665 1686 
Q 4525 1866 4316 1866 
z
" transform="scale(0.015625)"/>
      <path id="ArialMT-63" d="M 2588 1216 
L 3141 1144 
Q 3050 572 2676 248 
Q 2303 -75 1759 -75 
Q 1078 -75 664 370 
Q 250 816 250 1647 
Q 250 2184 428 2587 
Q 606 2991 970 3192 
Q 1334 3394 1763 3394 
Q 2303 3394 2647 3120 
Q 2991 2847 3088 2344 
L 2541 2259 
Q 2463 2594 2264 2762 
Q 2066 2931 1784 2931 
Q 1359 2931 1093 2626 
Q 828 2322 828 1663 
Q 828 994 1084 691 
Q 1341 388 1753 388 
Q 2084 388 2306 591 
Q 2528 794 2588 1216 
z
" transform="scale(0.015625)"/>
      <path id="ArialMT-29" d="M 791 -1347 
L 388 -1347 
Q 1322 153 1322 1656 
Q 1322 2244 1188 2822 
Q 1081 3291 891 3722 
Q 769 4003 388 4659 
L 791 4659 
Q 1378 3875 1659 3084 
Q 1900 2403 1900 1659 
Q 1900 816 1576 28 
Q 1253 -759 791 -1347 
z
" transform="scale(0.015625)"/>
     </defs>
     <use xlink:href="#ArialMT-50"/>
     <use xlink:href="#ArialMT-43" transform="translate(66.699219 0)"/>
     <use xlink:href="#ArialMT-41" transform="translate(138.916016 0)"/>
     <use xlink:href="#ArialMT-20" transform="translate(200.115234 0)"/>
     <use xlink:href="#ArialMT-6f" transform="translate(227.898438 0)"/>
     <use xlink:href="#ArialMT-66" transform="translate(283.513672 0)"/>
     <use xlink:href="#ArialMT-20" transform="translate(311.296875 0)"/>
     <use xlink:href="#ArialMT-50" transform="translate(339.080078 0)"/>
     <use xlink:href="#ArialMT-4c" transform="translate(405.779297 0)"/>
     <use xlink:href="#ArialMT-41" transform="translate(461.394531 0)"/>
     <use xlink:href="#ArialMT-54" transform="translate(520.71875 0)"/>
     <use xlink:href="#ArialMT-20" transform="translate(580.052734 0)"/>
     <use xlink:href="#ArialMT-77" transform="translate(607.835938 0)"/>
     <use xlink:href="#ArialMT-69" transform="translate(680.052734 0)"/>
     <use xlink:href="#ArialMT-74" transform="translate(702.269531 0)"/>
     <use xlink:href="#ArialMT-68" transform="translate(730.052734 0)"/>
     <use xlink:href="#ArialMT-20" transform="translate(785.667969 0)"/>
     <use xlink:href="#ArialMT-50" transform="translate(813.451172 0)"/>
     <use xlink:href="#ArialMT-61" transform="translate(880.150391 0)"/>
     <use xlink:href="#ArialMT-69" transform="translate(935.765625 0)"/>
     <use xlink:href="#ArialMT-72" transform="translate(957.982422 0)"/>
     <use xlink:href="#ArialMT-73" transform="translate(991.283203 0)"/>
     <use xlink:href="#ArialMT-20" transform="translate(1041.283203 0)"/>
     <use xlink:href="#ArialMT-28" transform="translate(1069.066406 0)"/>
     <use xlink:href="#ArialMT-50" transform="translate(1102.367188 0)"/>
     <use xlink:href="#ArialMT-61" transform="translate(1169.066406 0)"/>
     <use xlink:href="#ArialMT-69" transform="translate(1224.681641 0)"/>
     <use xlink:href="#ArialMT-72" transform="translate(1246.898438 0)"/>
     <use xlink:href="#ArialMT-65" transform="translate(1280.199219 0)"/>
     <use xlink:href="#ArialMT-64" transform="translate(1335.814453 0)"/>
     <use xlink:href="#ArialMT-20" transform="translate(1391.429688 0)"/>
     <use xlink:href="#ArialMT-42" transform="translate(1419.212891 0)"/>
     <use xlink:href="#ArialMT-79" transform="translate(1485.912109 0)"/>
     <use xlink:href="#ArialMT-20" transform="translate(1535.912109 0)"/>
     <use xlink:href="#ArialMT-54" transform="translate(1561.945312 0)"/>
     <use xlink:href="#ArialMT-72" transform="translate(1619.279297 0)"/>
     <use xlink:href="#ArialMT-65" transform="translate(1652.580078 0)"/>
     <use xlink:href="#ArialMT-61" transform="translate(1708.195312 0)"/>
     <use xlink:href="#ArialMT-74" transform="translate(1763.810547 0)"/>
     <use xlink:href="#ArialMT-6d" transform="translate(1791.59375 0)"/>
     <use xlink:href="#ArialMT-65" transform="translate(1874.894531 0)"/>
     <use xlink:href="#ArialMT-6e" transform="translate(1930.509766 0)"/>
     <use xlink:href="#ArialMT-74" transform="translate(1986.125 0)"/>
     <use xlink:href="#ArialMT-2c" transform="translate(2013.908203 0)"/>
     <use xlink:href="#ArialMT-20" transform="translate(2041.691406 0)"/>
     <use xlink:href="#ArialMT-4f" transform="translate(2069.474609 0)"/>
     <use xlink:href="#ArialMT-6e" transform="translate(2147.257812 0)"/>
     <use xlink:href="#ArialMT-6c" transform="translate(2202.873047 0)"/>
     <use xlink:href="#ArialMT-79" transform="translate(2225.089844 0)"/>
     <use xlink:href="#ArialMT-20" transform="translate(2275.089844 0)"/>
     <use xlink:href="#ArialMT-43" transform="translate(2302.873047 0)"/>
     <use xlink:href="#ArialMT-44" transform="translate(2375.089844 0)"/>
     <use xlink:href="#ArialMT-38" transform="translate(2447.306641 0)"/>
     <use xlink:href="#ArialMT-2c" transform="translate(2502.921875 0)"/>
     <use xlink:href="#ArialMT-20" transform="translate(2530.705078 0)"/>
     <use xlink:href="#ArialMT-35" transform="translate(2558.488281 0)"/>
     <use xlink:href="#ArialMT-30" transform="translate(2614.103516 0)"/>
     <use xlink:href="#ArialMT-25" transform="translate(2669.71875 0)"/>
     <use xlink:href="#ArialMT-20" transform="translate(2758.634766 0)"/>
     <use xlink:href="#ArialMT-50" transform="translate(2786.417969 0)"/>
     <use xlink:href="#ArialMT-72" transform="translate(2853.117188 0)"/>
     <use xlink:href="#ArialMT-6f" transform="translate(2886.417969 0)"/>
     <use xlink:href="#ArialMT-74" transform="translate(2942.033203 0)"/>
     <use xlink:href="#ArialMT-65" transform="translate(2969.816406 0)"/>
     <use xlink:href="#ArialMT-69" transform="translate(3025.431641 0)"/>
     <use xlink:href="#ArialMT-6e" transform="translate(3047.648438 0)"/>
     <use xlink:href="#ArialMT-20" transform="translate(3103.263672 0)"/>
     <use xlink:href="#ArialMT-43" transform="translate(3131.046875 0)"/>
     <use xlink:href="#ArialMT-6f" transform="translate(3203.263672 0)"/>
     <use xlink:href="#ArialMT-6e" transform="translate(3258.878906 0)"/>
     <use xlink:href="#ArialMT-63" transform="translate(3314.494141 0)"/>
     <use xlink:href="#ArialMT-29" transform="translate(3364.494141 0)"/>
    </g>
   </g>
   <g id="legend_1">
    <g id="patch_9">
     <path d="M 595.1 122.690625 
L 641 122.690625 
Q 643 122.690625 643 120.690625 
L 643 93.4 
Q 643 91.4 641 91.4 
L 595.1 91.4 
Q 593.1 91.4 593.1 93.4 
L 593.1 120.690625 
Q 593.1 122.690625 595.1 122.690625 
z
" style="fill: #eaeaf2; opacity: 0.5; stroke: #cccccc; stroke-linejoin: miter"/>
    </g>
    <g id="line2d_15">
     <defs>
      <path id="m94c58a52e0" d="M 0 3.535534 
C 0.937635 3.535534 1.836992 3.163008 2.5 2.5 
C 3.163008 1.836992 3.535534 0.937635 3.535534 0 
C 3.535534 -0.937635 3.163008 -1.836992 2.5 -2.5 
C 1.836992 -3.163008 0.937635 -3.535534 0 -3.535534 
C -0.937635 -3.535534 -1.836992 -3.163008 -2.5 -2.5 
C -3.163008 -1.836992 -3.535534 -0.937635 -3.535534 0 
C -3.535534 0.937635 -3.163008 1.836992 -2.5 2.5 
C -1.836992 3.163008 -0.937635 3.535534 0 3.535534 
z
" style="stroke: #ffffff; stroke-width: 0.565685"/>
     </defs>
     <g>
      <use xlink:href="#m94c58a52e0" x="607.1" y="99.057812" style="fill: #ff0000; stroke: #ffffff; stroke-width: 0.565685"/>
     </g>
    </g>
    <g id="text_16">
     <!-- 0.0 -->
     <g style="fill: #262626" transform="translate(625.1 102.557812) scale(0.1 -0.1)">
      <defs>
       <path id="ArialMT-2e" d="M 581 0 
L 581 641 
L 1222 641 
L 1222 0 
L 581 0 
z
" transform="scale(0.015625)"/>
      </defs>
      <use xlink:href="#ArialMT-30"/>
      <use xlink:href="#ArialMT-2e" transform="translate(55.615234 0)"/>
      <use xlink:href="#ArialMT-30" transform="translate(83.398438 0)"/>
     </g>
    </g>
    <g id="line2d_16">
     <defs>
      <path id="mea5e35a1b1" d="M 0 3.535534 
C 0.937635 3.535534 1.836992 3.163008 2.5 2.5 
C 3.163008 1.836992 3.535534 0.937635 3.535534 0 
C 3.535534 -0.937635 3.163008 -1.836992 2.5 -2.5 
C 1.836992 -3.163008 0.937635 -3.535534 0 -3.535534 
C -0.937635 -3.535534 -1.836992 -3.163008 -2.5 -2.5 
C -3.163008 -1.836992 -3.535534 -0.937635 -3.535534 0 
C -3.535534 0.937635 -3.163008 1.836992 -2.5 2.5 
C -1.836992 3.163008 -0.937635 3.535534 0 3.535534 
z
" style="stroke: #ffffff; stroke-width: 0.565685"/>
     </defs>
     <g>
      <use xlink:href="#mea5e35a1b1" x="607.1" y="113.203125" style="fill: #008000; stroke: #ffffff; stroke-width: 0.565685"/>
     </g>
    </g>
    <g id="text_17">
     <!-- 1.0 -->
     <g style="fill: #262626" transform="translate(625.1 116.703125) scale(0.1 -0.1)">
      <use xlink:href="#ArialMT-31"/>
      <use xlink:href="#ArialMT-2e" transform="translate(55.615234 0)"/>
      <use xlink:href="#ArialMT-30" transform="translate(83.398438 0)"/>
     </g>
    </g>
   </g>
  </g>
 </g>
 <defs>
  <clipPath id="p9190a55860">
   <rect x="90" y="86.4" width="558" height="554.4"/>
  </clipPath>
 </defs>
</svg>
